<svg id="Layer_1" data-name="Layer 1" xmlns="http://www.w3.org/2000/svg" xmlns:xlink="http://www.w3.org/1999/xlink" viewBox="0 0 330 330"><defs><style>.cls-1{fill:none;}.cls-2{fill:#d7dddf;}.cls-3{fill:#14b4db;}.cls-4{fill:#fff;}.cls-5{fill:#383838;}.cls-6{clip-path:url(#clip-path);}</style><clipPath id="clip-path"><rect class="cls-1" x="21.9" y="27.11" width="280.44" height="280.44"/></clipPath></defs><title>atom</title><polygon class="cls-2" points="143.76 124.7 148.58 112.98 175.71 112.98 180.9 124.7 191.65 118.84 210.55 137.86 205.34 149.15 216.74 153.79 216.74 180.93 203.82 184.01 209.57 196.06 191.65 216.04 180.25 209.63 175.71 222.12 148.58 222.12 145.39 209.63 133.01 217.11 113.79 196.06 120.96 184.01 107.28 178.14 107.28 153.79 119.98 150.45 115.42 135.71 132.69 119.37 143.76 124.7"/><circle class="cls-3" cx="162.15" cy="167.55" r="25.92"/><circle class="cls-3" cx="40.15" cy="203.55" r="12.49"/><circle class="cls-3" cx="287.27" cy="199.02" r="12.49"/><circle class="cls-3" cx="188.73" cy="86.39" r="12.49"/><circle class="cls-2" cx="284.21" cy="46.68" r="12.49"/><circle class="cls-2" cx="162.01" cy="270.8" r="12.49"/><circle class="cls-4" cx="162.15" cy="167.55" r="6.7"/><path class="cls-5" d="M162.15,135.71a31.66,31.66,0,1,0,31.66,31.65,31.7,31.7,0,0,0-31.66-31.65Zm0,54.26a22.61,22.61,0,1,1,22.61-22.61A22.63,22.63,0,0,1,162.15,190Zm0,0"/><path class="cls-5" d="M162.15,153.79a13.57,13.57,0,1,0,13.56,13.57,13.59,13.59,0,0,0-13.56-13.57Zm0,18.09a4.52,4.52,0,1,1,4.52-4.52,4.52,4.52,0,0,1-4.52,4.52Zm0,0"/><path class="cls-5" d="M210,187.19l10.92-2.73v-34.2L210,147.53l5.79-9.66L191.63,113.7,182,119.49l-2.72-10.92h-34.2l-2.73,10.92-9.66-5.79-24.17,24.18,5.78,9.66-10.91,2.72v34.2l10.92,2.73-5.79,9.66L132.67,221l9.66-5.78,2.72,10.91h34.2L182,215.23l9.65,5.79,24.18-24.18Zm-19.79,22.44-9.77-5.86L175,206l-2.77,11.09H152.11l-2.2-8.82-.91-2.41-5.17-2.11-9.76,5.86-14.2-14.19,5.86-9.76-2.24-5.52-11.09-2.77V157.33l8.82-2.2,2.41-.92,2.1-5.17-5.86-9.76,14.2-14.19,9.76,5.86,5.51-2.25,2.77-11.09h20.07l2.2,8.82.91,2.41,5.17,2.11,9.77-5.86,14.19,14.19L198.56,149l2.25,5.52,11.08,2.77v20.06l-8.81,2.2-2.41.92-2.11,5.17,5.86,9.76Zm0,0"/><path class="cls-5" d="M64.15,288.4a47.91,47.91,0,0,0,9.93,1v-9.05a38.88,38.88,0,0,1-8.06-.78Zm0,0"/><path class="cls-5" d="M53.61,272.14l-7.28,5.36A27.44,27.44,0,0,0,49,280.56a27.09,27.09,0,0,0,5.42,4.16l4.56-7.81a17.45,17.45,0,0,1-3.58-2.75,16.58,16.58,0,0,1-1.74-2Zm0,0"/><path class="cls-5" d="M49.18,257.61l-9,.4a41.7,41.7,0,0,0,1.57,10l8.68-2.53a33.73,33.73,0,0,1-1.22-7.85Zm0,0"/><path class="cls-5" d="M284.21,81.62a52,52,0,0,0-.49-9.91l-8.94,1.37a42.8,42.8,0,0,1,.39,8.17Zm0,0"/><g class="cls-6"><path class="cls-5" d="M283.15,91.25l-8.92-1.54c-2.16,12.51-7.89,27.64-16.57,43.74l8,4.29c9.14-17,15.2-33,17.53-46.49Zm0,0"/><path class="cls-5" d="M302.34,199a18.1,18.1,0,0,0-18.09-18.09,17.84,17.84,0,0,0-6.25,1.18q-4.22-7.35-9-14.74c26.28-40.32,40.83-82.3,29.22-110.73a17.92,17.92,0,0,0,4.14-11.38,18,18,0,0,0-29.48-13.95c-28.42-11.62-70.4,2.92-110.72,29.21-45.44-29.59-97.75-47.38-126-19.15-18.09,18.09-19,47.89-2.58,86.16A264.49,264.49,0,0,0,55.3,167.38Q49.23,176.7,44.12,186a17.67,17.67,0,0,0-4.08-.51,18,18,0,0,0-10.68,32.61c-11.75,33-9.45,59,6.8,75.29,9.42,9.42,22.28,14.08,37.8,14.08,20.65,0,46-8.36,74.23-24.69a17.83,17.83,0,0,0,27.91,0c28.2,16.33,53.59,24.69,74.24,24.69,15.52,0,28.38-4.67,37.79-14.08,16.88-16.88,18.71-44.12,5.46-78.92A18,18,0,0,0,302.34,199Zm-9,0a9,9,0,1,1-9.05-9.05A9.05,9.05,0,0,1,293.3,199ZM284.25,36.21a9,9,0,1,1-9,9,9.06,9.06,0,0,1,9-9Zm-16.87,2.68a18,18,0,0,0,16.87,24.46,17.73,17.73,0,0,0,6.37-1.22c8.58,24.62-4.45,61.26-27.19,97.05A377,377,0,0,0,221,108.49c-4.88-4.9-10.13-9.78-15.55-14.61a17.92,17.92,0,0,0,1.9-7.92,18.1,18.1,0,0,0-18.09-18.09,17.87,17.87,0,0,0-11,3.85q-3.9-2.88-7.9-5.66c35.77-22.72,72.4-35.75,97-27.17ZM172.07,256.28a18,18,0,0,0-19.84,0,372,372,0,0,1-42.56-36.44,365.44,365.44,0,0,1-43.5-52.42,363.4,363.4,0,0,1,96-96q5.37,3.63,10.49,7.4a18.06,18.06,0,0,0,27,21.94c5.22,4.66,10.3,9.39,15,14.11a366.59,366.59,0,0,1,43.44,52.47,367,367,0,0,1-43.44,52.49,372,372,0,0,1-42.56,36.44ZM189.28,95a9,9,0,1,1,9.05-9,9,9,0,0,1-9.05,9ZM41.89,124C31.55,99.84,23.28,67,42.56,47.77,66.32,24,113.46,40.5,153.94,66a374.93,374.93,0,0,0-93.15,93.19A249.8,249.8,0,0,1,41.89,124ZM40,194.5a9,9,0,1,1-9,9,9.05,9.05,0,0,1,9-9ZM42.56,287c-16.86-16.86-12.34-44.24-4.81-65.56a17.42,17.42,0,0,0,2.29.24,18,18,0,0,0,12.08-31.46q4-7.28,8.68-14.61a377.24,377.24,0,0,0,42.47,50.68,383,383,0,0,0,42.91,36.81,17.88,17.88,0,0,0-2.12,8.33,18.18,18.18,0,0,0,.32,3.15C98.51,301.29,61.48,305.88,42.56,287Zm119.59-6.53a9,9,0,1,1,9-9,9.05,9.05,0,0,1-9,9ZM281.74,287c-18.94,18.94-56,14.34-101.82-12.42a18.18,18.18,0,0,0,.32-3.15,17.77,17.77,0,0,0-2.13-8.33A381.24,381.24,0,0,0,221,226.24a376.06,376.06,0,0,0,42.44-50.68q3.75,5.9,7.11,11.76a17.92,17.92,0,0,0-4.41,11.7,18.11,18.11,0,0,0,18.09,18.09c.23,0,.45-.06.67-.07,8.76,22.72,14.6,52.13-3.18,69.91Zm0,0"/></g><path class="cls-5" d="M225.73,285.35c2.67.79,5.28,1.47,7.81,2l1.94-8.84q-3.48-.77-7.17-1.86Zm0,0"/><path class="cls-5" d="M208.25,278.91q4.4,1.9,8.62,3.47L220,273.9c-2.67-1-5.39-2.09-8.18-3.29Zm0,0"/><path class="cls-5" d="M191.65,270.8q4.15,2.25,8.21,4.23l4-8.13q-3.87-1.89-7.86-4Zm0,0"/><path class="cls-5" d="M54,128.63q2.2,4.58,4.73,9.23l8-4.29q-2.42-4.47-4.55-8.87Zm0,0"/><path class="cls-5" d="M49,54.16c-15.5,15.5-8.12,44,.8,65.21l8.34-3.51c-5.17-12.28-15.79-42.25-2.74-55.3,3.71-3.72,9.28-5.77,16.55-6.11l-.41-9c-9.6.45-17.19,3.39-22.54,8.75Zm0,0"/></svg>