<svg id="Layer_1" data-name="Layer 1" xmlns="http://www.w3.org/2000/svg" viewBox="0 0 330 330"><defs><style>.cls-1{fill:#d7dddf;}.cls-2{fill:none;}.cls-3{fill:#383838;}.cls-4{fill:#14b4db;}</style></defs><title>bounce-rate-icon</title><rect class="cls-1" x="39.18" y="34.96" width="250.28" height="50.01"/><circle class="cls-2" cx="233.96" cy="158.59" r="18.5"/><path class="cls-2" d="M289.46,53.75a12.34,12.34,0,0,0-12.33-12.33h-222A12.34,12.34,0,0,0,42.79,53.75V78.42H289.46ZM61.29,66.09a6.17,6.17,0,1,1,6.17-6.17A6.16,6.16,0,0,1,61.29,66.09Zm24.67,0a6.17,6.17,0,1,1,6.17-6.17A6.17,6.17,0,0,1,86,66.09Zm24.67,0a6.17,6.17,0,1,1,6.16-6.17A6.17,6.17,0,0,1,110.63,66.09Z"/><path class="cls-3" d="M289.46,275.76a12.33,12.33,0,0,1-12.33,12.33h-222a12.33,12.33,0,0,1-12.34-12.33v-185H289.46v46.36a6.17,6.17,0,0,0,6.17,6.17h0a6.17,6.17,0,0,0,6.17-6.17V53.75a24.67,24.67,0,0,0-24.67-24.66h-222A24.66,24.66,0,0,0,30.46,53.75v222a24.66,24.66,0,0,0,24.67,24.66h222a24.67,24.67,0,0,0,24.67-24.66V208.48a6.17,6.17,0,0,0-6.17-6.17h0a6.17,6.17,0,0,0-6.17,6.17ZM42.79,53.75A12.34,12.34,0,0,1,55.13,41.42h222a12.34,12.34,0,0,1,12.33,12.33V78.42H42.79Z"/><circle class="cls-3" cx="61.29" cy="59.92" r="6.17"/><circle class="cls-3" cx="85.96" cy="59.92" r="6.17"/><circle class="cls-3" cx="110.63" cy="59.92" r="6.17"/><path class="cls-3" d="M86.89,153.46a84.7,84.7,0,0,0-13.26-1,6.17,6.17,0,1,0,0,12.33,72.25,72.25,0,0,1,11.33.9,8.07,8.07,0,0,0,1,.07,6.17,6.17,0,0,0,1-12.26Z"/><path class="cls-3" d="M128.1,172.37a83.79,83.79,0,0,0-19.29-12.28,6.17,6.17,0,0,0-5.16,11.2,72.33,72.33,0,0,1,16.48,10.5,6.17,6.17,0,1,0,8-9.42Z"/><path class="cls-3" d="M149.72,217.64a6.16,6.16,0,0,0,3.87-7.82,84,84,0,0,0-10.19-20.47,6.16,6.16,0,1,0-10.19,6.94,72,72,0,0,1,8.7,17.49,6.14,6.14,0,0,0,7.81,3.86Z"/><path class="cls-3" d="M156.41,226.6a6.24,6.24,0,0,0-2.62.2,6.15,6.15,0,0,0-7.85,6.78l1.75,12.21a6.17,6.17,0,0,0,12.21,0l1.75-12.21A6.18,6.18,0,0,0,156.41,226.6Z"/><path class="cls-3" d="M172.16,179.5A84.13,84.13,0,0,0,156.25,204a6.15,6.15,0,0,0,3.26,8.08,6.08,6.08,0,0,0,2.41.49,6.15,6.15,0,0,0,5.68-3.75,71.55,71.55,0,0,1,13.59-20.88,6.17,6.17,0,1,0-9-8.4Z"/><path class="cls-4" d="M234,127.75a30.86,30.86,0,0,0-30.83,30.84c0,.06,0,.11,0,.17-2.57,1-5.19,1.93-7.61,3.16a6.17,6.17,0,0,0,5.63,11c1.46-.75,3.08-1.27,4.61-1.93A30.82,30.82,0,1,0,234,127.75Zm0,49.34a18.5,18.5,0,1,1,18.5-18.5A18.52,18.52,0,0,1,234,177.09Z"/><circle class="cls-3" cx="294.93" cy="177.09" r="6.86"/></svg>