<svg id="Layer_1" data-name="Layer 1" xmlns="http://www.w3.org/2000/svg" viewBox="0 0 330 330"><defs><style>.cls-1{fill:#fff;}.cls-2{fill:#d7dddf;}.cls-3{fill:#14b4db;}.cls-4{fill:#333a38;}</style></defs><title>code-circuit-icon</title><rect class="cls-1" x="81.04" y="97.39" width="161.44" height="137.69"/><rect class="cls-2" x="83.15" y="101.15" width="156.86" height="20.39"/><path class="cls-3" d="M103.5,114.06h76.64a3.81,3.81,0,0,0,0-7.61H103.5a3.81,3.81,0,1,0,0,7.61Z"/><path class="cls-4" d="M196.24,113.83A3.81,3.81,0,0,0,200,110v-.42a3.81,3.81,0,0,0-7.61,0V110A3.82,3.82,0,0,0,196.24,113.83Z"/><path class="cls-4" d="M207.92,113.83a3.82,3.82,0,0,0,3.81-3.81v-.42a3.81,3.81,0,0,0-7.62,0V110A3.82,3.82,0,0,0,207.92,113.83Z"/><path class="cls-4" d="M219.6,113.83a3.82,3.82,0,0,0,3.81-3.81v-.42a3.81,3.81,0,0,0-7.61,0V110A3.81,3.81,0,0,0,219.6,113.83Z"/><path class="cls-4" d="M127.67,157.07a3.83,3.83,0,0,0-5.39,0L105.36,174a3.8,3.8,0,0,0,0,5.38l16.92,16.92a3.81,3.81,0,1,0,5.39-5.38l-14.24-14.23,14.24-14.23A3.83,3.83,0,0,0,127.67,157.07Z"/><path class="cls-4" d="M195.43,196.3a3.8,3.8,0,0,0,5.39,0l16.92-16.92a3.8,3.8,0,0,0,0-5.38l-16.92-16.93a3.81,3.81,0,1,0-5.39,5.39l14.24,14.23-14.24,14.23A3.81,3.81,0,0,0,195.43,196.3Z"/><path class="cls-4" d="M158,158.66a3.81,3.81,0,0,0-5.15,1.56L136,191.82a3.81,3.81,0,0,0,1.57,5.15,3.72,3.72,0,0,0,1.79.45,3.81,3.81,0,0,0,3.36-2l16.88-31.6A3.8,3.8,0,0,0,158,158.66Z"/><path class="cls-4" d="M156.67,192.81v.38a3.81,3.81,0,1,0,7.61,0v-.38a3.81,3.81,0,1,0-7.61,0Z"/><path class="cls-4" d="M176.68,193.19v-.38a3.81,3.81,0,1,0-7.61,0v.38a3.81,3.81,0,1,0,7.61,0Z"/><path class="cls-4" d="M185.27,189a3.82,3.82,0,0,0-3.81,3.81v.38a3.81,3.81,0,1,0,7.61,0v-.38A3.81,3.81,0,0,0,185.27,189Z"/><rect class="cls-1" x="61.48" y="255.1" width="21.67" height="21.67"/><rect class="cls-3" x="150.93" y="269.14" width="21.67" height="21.67"/><rect class="cls-2" x="240.01" y="255.53" width="21.67" height="21.67"/><rect class="cls-1" x="242.49" y="54.85" width="21.67" height="21.67"/><rect class="cls-3" x="149.18" y="41.24" width="21.67" height="21.67"/><rect class="cls-3" x="61.42" y="54.85" width="21.67" height="21.67"/><path class="cls-4" d="M258.42,49.72H243.27a8.4,8.4,0,0,0-8.4,8.39v3.77h-19a8.26,8.26,0,0,0-8.25,8.25V94.05H165.36V68h3.76a8.4,8.4,0,0,0,8.4-8.39V44.5a8.41,8.41,0,0,0-8.4-8.4H154a8.41,8.41,0,0,0-8.4,8.4V59.65A8.4,8.4,0,0,0,154,68h3.76v26H115.45V70.13a8.26,8.26,0,0,0-8.25-8.25h-19V58.11a8.4,8.4,0,0,0-8.4-8.39H64.68a8.4,8.4,0,0,0-8.39,8.39V73.26a8.4,8.4,0,0,0,8.39,8.4H79.83a8.41,8.41,0,0,0,8.4-8.4V69.49h19a.64.64,0,0,1,.64.64V94.05H88.55a10.15,10.15,0,0,0-10.14,10.14V197A3.81,3.81,0,1,0,86,197V125.58H237.08v15.25a3.81,3.81,0,1,0,7.61,0V104.19a10.15,10.15,0,0,0-10.14-10.14H215.26V70.13a.64.64,0,0,1,.64-.64h19v3.77a8.41,8.41,0,0,0,8.4,8.4h15.15a8.4,8.4,0,0,0,8.39-8.4V58.11A8.39,8.39,0,0,0,258.42,49.72ZM153.19,59.65V44.5a.78.78,0,0,1,.79-.78h15.15a.78.78,0,0,1,.78.78V59.65a.78.78,0,0,1-.78.78H154A.78.78,0,0,1,153.19,59.65ZM80.62,73.26a.79.79,0,0,1-.79.78H64.68a.78.78,0,0,1-.78-.78V58.11a.78.78,0,0,1,.78-.78H79.83a.79.79,0,0,1,.79.78Zm156.46,30.93V118H86V104.19a2.53,2.53,0,0,1,2.53-2.53h146A2.54,2.54,0,0,1,237.08,104.19ZM259.2,73.26a.78.78,0,0,1-.78.78H243.27a.78.78,0,0,1-.78-.78V58.11a.78.78,0,0,1,.78-.78h15.15a.78.78,0,0,1,.78.78Z"/><path class="cls-4" d="M258.42,250.39H243.27a8.41,8.41,0,0,0-8.4,8.4v3.77h-19a.64.64,0,0,1-.64-.64V238H238a6.71,6.71,0,0,0,6.7-6.7V156.37a3.81,3.81,0,1,0-7.61,0v74H195.2a3.81,3.81,0,0,0,0,7.61h12.45v23.92a8.26,8.26,0,0,0,8.25,8.25h19v3.77a8.4,8.4,0,0,0,8.4,8.39h15.15a8.39,8.39,0,0,0,8.39-8.39V258.79A8.4,8.4,0,0,0,258.42,250.39Zm.78,23.55a.78.78,0,0,1-.78.78H243.27a.78.78,0,0,1-.78-.78V258.79a.79.79,0,0,1,.78-.79h15.15a.79.79,0,0,1,.78.79Z"/><path class="cls-4" d="M179.66,230.39H86V212.53a3.81,3.81,0,0,0-7.61,0V231.3a6.71,6.71,0,0,0,6.7,6.7h22.73v23.92a.64.64,0,0,1-.64.64h-19v-3.77a8.41,8.41,0,0,0-8.4-8.4H64.68a8.41,8.41,0,0,0-8.39,8.4v15.15a8.4,8.4,0,0,0,8.39,8.39H79.83a8.4,8.4,0,0,0,8.4-8.39v-3.77h19a8.26,8.26,0,0,0,8.25-8.25V238h42.29v26H154a8.41,8.41,0,0,0-8.4,8.4v15.15a8.4,8.4,0,0,0,8.4,8.39h15.14a8.4,8.4,0,0,0,8.4-8.39V272.4a8.41,8.41,0,0,0-8.4-8.4h-3.76V238h14.3a3.81,3.81,0,1,0,0-7.61Zm-99,43.55a.79.79,0,0,1-.79.78H64.68a.78.78,0,0,1-.78-.78V258.79a.79.79,0,0,1,.78-.79H79.83a.8.8,0,0,1,.79.79Zm89.29-1.54v15.15a.78.78,0,0,1-.79.78H154a.78.78,0,0,1-.79-.78V272.4a.78.78,0,0,1,.79-.78h15.14A.78.78,0,0,1,169.91,272.4Z"/></svg>