<svg id="Layer_1" data-name="Layer 1" xmlns="http://www.w3.org/2000/svg" viewBox="0 0 330 330"><defs><style>.cls-1{fill:#d7dddf;}.cls-2{fill:#fff;}.cls-3{fill:#333a38;}.cls-4{fill:#14b4db;}.cls-5{fill:none;stroke:#333a38;stroke-miterlimit:10;stroke-width:2.79px;}</style></defs><title>computer-and-phone-icon</title><polygon class="cls-1" points="77.8 59.27 252.75 59.27 269.09 64.72 270.91 91.66 270.91 215.46 267.58 230.59 240.03 235.13 108.67 235.13 64.18 235.13 64.18 124.95 63.27 71.68 67.51 63.21 77.8 59.27"/><rect class="cls-2" x="81.43" y="102.56" width="173.44" height="114.87"/><rect class="cls-1" x="142.27" y="234.22" width="48.43" height="21.79"/><rect class="cls-1" x="124.11" y="258.74" width="86.87" height="14.83"/><polygon class="cls-1" points="41.07 179.74 41.07 160.77 53.78 155.12 100.4 156.74 107.06 164.6 107.06 181.35 41.07 179.74"/><polygon class="cls-1" points="41.27 249.56 41.27 264.89 43.7 272.96 64.08 275.38 106.05 274.18 110.69 257.43 108.67 249.56 41.27 249.56"/><path class="cls-3" d="M76.43,258.3h-4.6a3.49,3.49,0,0,0,0,7h4.6a3.49,3.49,0,0,0,0-7Z"/><path class="cls-3" d="M71.83,172.64h4.6a3.49,3.49,0,0,0,0-7h-4.6a3.49,3.49,0,0,0,0,7Z"/><path class="cls-4" d="M230.27,156.38H191.82a3.49,3.49,0,1,0,0,7h38.45a3.49,3.49,0,0,0,0-7Z"/><path class="cls-4" d="M230.27,174.46H191.82a3.49,3.49,0,1,0,0,7h38.45a3.49,3.49,0,0,0,0-7Z"/><path class="cls-4" d="M230.27,192.54H191.82a3.48,3.48,0,1,0,0,7h38.45a3.48,3.48,0,0,0,0-7Z"/><path class="cls-4" d="M229.43,143.75a9.07,9.07,0,0,0,9.06-9.06v-8.06a9.08,9.08,0,0,0-9.06-9.06H175.07a3.49,3.49,0,1,0,0,7h54.36a2.12,2.12,0,0,1,2.09,2.09v8.06a2.12,2.12,0,0,1-2.09,2.1H104.32a2.12,2.12,0,0,1-2.09-2.1v-8.06a2.12,2.12,0,0,1,2.09-2.09h54.49a3.49,3.49,0,0,0,0-7H104.32a9.08,9.08,0,0,0-9.06,9.06v8.06a9.07,9.07,0,0,0,9.06,9.06Z"/><rect class="cls-2" x="41.88" y="197.29" width="65.18" height="52.67"/><rect class="cls-4" x="40.67" y="182.36" width="65.78" height="11.3"/><rect class="cls-4" x="80.22" y="74.71" width="175.86" height="25.43"/><path class="cls-3" d="M270.63,142.27a3.48,3.48,0,0,0,3.48-3.49V74a18.26,18.26,0,0,0-18.24-18.24H78A18.26,18.26,0,0,0,59.76,74v79.22h-11a12.45,12.45,0,0,0-12.44,12.44v99.88A12.45,12.45,0,0,0,48.71,278H99.55A12.45,12.45,0,0,0,112,265.56V238.05h27v16.29H127.65a9.27,9.27,0,0,0-9.26,9.26v5.14a9.27,9.27,0,0,0,9.26,9.26h78.57a9.27,9.27,0,0,0,9.26-9.26V263.6a9.27,9.27,0,0,0-9.26-9.26H194.94V238.05h60.93a18.26,18.26,0,0,0,18.24-18.24V155a3.49,3.49,0,0,0-7,0v64.77a11.28,11.28,0,0,1-11.27,11.27H112v-9.43H252.91a4.81,4.81,0,0,0,4.81-4.8V77a4.82,4.82,0,0,0-4.81-4.81H81A4.81,4.81,0,0,0,76.16,77v76.26H66.73V74A11.28,11.28,0,0,1,78,62.75H255.87A11.28,11.28,0,0,1,267.14,74v64.76A3.49,3.49,0,0,0,270.63,142.27ZM208.52,263.6v5.14a2.29,2.29,0,0,1-2.3,2.29H127.65a2.29,2.29,0,0,1-2.29-2.29V263.6a2.3,2.3,0,0,1,2.29-2.3h78.57A2.3,2.3,0,0,1,208.52,263.6ZM188,238.05v16.29H145.91V238.05ZM105,184.25v8.51H58.88v-8.51ZM43.24,199.73H105v45.86H43.24ZM112,160.85a2.12,2.12,0,0,1,2.09-2.09h55.3a2.12,2.12,0,0,1,2.1,2.09V195a2.12,2.12,0,0,1-2.1,2.09h-55.3A2.12,2.12,0,0,1,112,195ZM51.91,192.76H43.24v-8.51h8.67ZM99.55,271H48.71a5.49,5.49,0,0,1-5.47-5.48v-13H105v13A5.48,5.48,0,0,1,99.55,271ZM250.75,96.86H112V79.14H250.75V96.86ZM83.12,79.14H105V96.86H83.12Zm0,24.69H250.75V214.68H112V203.85a9.64,9.64,0,0,0,2.09.25h55.3a9.07,9.07,0,0,0,9.06-9.06V160.85a9.06,9.06,0,0,0-9.06-9.06h-55.3a9,9,0,0,0-7.32,3.75,12.38,12.38,0,0,0-7.21-2.3H83.12V103.83ZM98,160.2a7.06,7.06,0,0,1,7,7.06v10H43.24v-11.6a5.49,5.49,0,0,1,5.47-5.48Z"/><path class="cls-4" d="M97.43,215.3a3.39,3.39,0,0,0,3.39-3.39v-3a3.39,3.39,0,0,0-3.39-3.39H77.06a1.31,1.31,0,1,0,0,2.61H97.43a.79.79,0,0,1,.78.78v3a.79.79,0,0,1-.78.78H50.55a.79.79,0,0,1-.78-.78v-3a.79.79,0,0,1,.78-.78H71a1.31,1.31,0,0,0,0-2.61H50.55a3.39,3.39,0,0,0-3.39,3.39v3a3.39,3.39,0,0,0,3.39,3.39Z"/><rect class="cls-5" x="47.99" y="221.21" width="51.76" height="17.86" rx="2.28"/></svg>