<svg id="Layer_1" data-name="Layer 1" xmlns="http://www.w3.org/2000/svg" viewBox="0 0 330 330"><defs><style>.cls-1{fill:#d7dddf;}.cls-2{fill:#fff;}.cls-3{fill:#383838;}.cls-4{fill:#14b4db;}</style></defs><title>content-edit-icon</title><rect class="cls-1" x="25.39" y="46.38" width="278.46" height="232.1"/><rect class="cls-2" x="25.39" y="106.59" width="279.51" height="158.41"/><path class="cls-3" d="M22.24,276a10.88,10.88,0,0,0,10.87,10.88H296.88A10.89,10.89,0,0,0,307.75,276v-10a5.85,5.85,0,0,0,0-.59V246.7a4.19,4.19,0,1,0-8.37,0v15.05H30.65V139.35a4.19,4.19,0,0,0-8.37,0Zm10.92,2.51A2.51,2.51,0,0,1,30.65,276v-5.85H299.34V276a2.51,2.51,0,0,1-2.51,2.51Z"/><path class="cls-3" d="M48.45,82.19A12.55,12.55,0,1,0,35.9,69.64,12.56,12.56,0,0,0,48.45,82.19Zm0-16.73a4.18,4.18,0,1,1-4.19,4.18A4.19,4.19,0,0,1,48.45,65.46Z"/><path class="cls-3" d="M77.44,82.19A12.55,12.55,0,1,0,64.9,69.64,12.56,12.56,0,0,0,77.44,82.19Zm0-16.73a4.18,4.18,0,1,1-4.18,4.18A4.19,4.19,0,0,1,77.44,65.46Z"/><path class="cls-3" d="M105.88,82.19A12.55,12.55,0,1,0,93.34,69.64,12.56,12.56,0,0,0,105.88,82.19Zm0-16.73a4.18,4.18,0,1,1-4.18,4.18A4.19,4.19,0,0,1,105.88,65.46Z"/><path class="cls-4" d="M239.72,230.7a4.19,4.19,0,0,0,0-8.37H90.27a4.19,4.19,0,0,0,0,8.37Z"/><path class="cls-3" d="M192.65,100.48a4.18,4.18,0,1,0-5.91,5.92l11.82,11.83a4.19,4.19,0,0,0,5.92-5.92Z"/><polygon class="cls-4" points="205.7 135.17 168.89 99.26 186.54 82.19 225.45 120.27 205.7 135.17"/><polygon class="cls-4" points="193.76 84.55 205.7 75.55 223.4 86.48 230.01 100.31 218.48 113.45 193.76 84.55"/><path class="cls-3" d="M22.28,121.22v0a4.19,4.19,0,1,0,8.37,0v-8.36h120L94.86,168.7a.86.86,0,0,0-.13.14l-.09.1a4,4,0,0,0-.31.41l0,0a3.3,3.3,0,0,0-.23.41l-.06.13c-.06.12-.11.25-.16.38l0,.1a4.05,4.05,0,0,0-.12.5s0,0,0,0l-7.5,43a.28.28,0,0,0,0,.09.89.89,0,0,0,0,.15v0a2.83,2.83,0,0,0,0,.41v.07c0,.14,0,.28,0,.42v.06c0,.14,0,.28.07.42s0,0,0,0a3.31,3.31,0,0,0,.12.42l0,0c0,.14.11.27.17.41l0,0c.07.14.14.27.22.4l0,0c.08.13.18.25.27.37l0,0a2.85,2.85,0,0,0,.23.26,4.19,4.19,0,0,0,3,1.22,4.37,4.37,0,0,0,.72-.06h0l43-7.49h0a3.18,3.18,0,0,0,.51-.13l.08,0a3.61,3.61,0,0,0,.42-.16l.1-.05a3.91,3.91,0,0,0,.85-.56l.11-.1a.86.86,0,0,0,.14-.13L151,195.4a4.19,4.19,0,0,0-5.92-5.92l-11.74,11.75-5.92-5.92,65.06-65.06,5.92,5.92L158.13,176.4a4.19,4.19,0,1,0,5.92,5.92l40.41-40.41a4.17,4.17,0,0,0,4.75-.81L227.35,123a4.19,4.19,0,0,0,0-5.92l-3-3,1.23-1.23h73.72V228.57a4.19,4.19,0,0,0,8.37,0h0l0-174.54c0-.19,0,.19,0,0h0a10.89,10.89,0,0,0-10.87-10.88H33.11A10.88,10.88,0,0,0,22.24,54ZM299.34,54V87.77H229.6l-.28-.3L217.49,75.64a15.33,15.33,0,0,0-21.68,0l-4.93,4.93-3-3a4.19,4.19,0,0,0-5.92,0L171.85,87.77H131.53V51.52h165.3A2.51,2.51,0,0,1,299.34,54ZM196.79,86.48h0l4.93-4.93a7,7,0,0,1,9.86,0l11.83,11.83a7,7,0,0,1,0,9.86l-4.93,4.93h0Zm-73.62-35V87.77H30.65V54a2.51,2.51,0,0,1,2.51-2.51Zm-92.52,53V96.13H163.53a4.2,4.2,0,0,0-.48,4.38l-4,4Zm138.14,2.09,5.92,5.92h0l-65.06,65.06-5.92-5.91ZM95.46,209.49h0l1.11-6.35,5.24,5.24Zm16.43-2.86L98.33,193.07l2.22-12.76,24.1,24.1h0Zm9.59-17.23-5.92-5.91,65.06-65.07h0l5.92,5.92ZM185,86.48h0L218.48,120l-12.23,12.22h0L172.74,98.71h0L185,86.49h0m47.55,18a15.46,15.46,0,0,0,1.14-8.37h65.69v8.37Z"/></svg>