<svg id="Layer_1" data-name="Layer 1" xmlns="http://www.w3.org/2000/svg" viewBox="0 0 330 330"><defs><style>.cls-1{fill:#d7dddf;}.cls-2{fill:#fff;}.cls-3{fill:#383838;}.cls-4{fill:#14b4db;}.cls-5{fill:none;}</style></defs><title>Artboard 1 copy 23</title><polygon class="cls-1" points="34.95 256.77 34.95 71.31 41.03 68.68 125.3 68.68 140.07 90.83 140.07 145.56 34.95 256.77"/><polygon class="cls-2" points="250.41 282.83 43.64 282.83 34.95 280.22 36.91 260.89 84.14 142.22 292 140.67 299.82 150.12 250.41 282.83"/><circle class="cls-3" cx="269.52" cy="233.2" r="4.15"/><polygon class="cls-2" points="267.78 110.54 78.86 110.54 59.36 125.95 57.1 94.31 267.78 92.13 267.78 110.54"/><polygon class="cls-4" points="49.72 138.18 50.59 224.62 84.14 142.22 277.34 142.22 277.34 110.54 78.86 110.54 76.22 138.18 49.72 138.18"/><polygon class="cls-5" points="59.36 133.07 71.16 133.07 71.16 121.25 62.04 130.39 59.36 133.07"/><path class="cls-5" d="M52.9,87.41h80.49L123.6,73.72h-81a3.33,3.33,0,0,0-3.34,3.34v172l4.54-12.46V135.75l9.15-9.15Z"/><polygon class="cls-5" points="62.04 117.49 73.83 105.67 262.96 105.67 262.96 96.55 62.04 96.55 62.04 117.49"/><path class="cls-5" d="M52.9,212.05l22.67-62.17,1.45-4a10.54,10.54,0,0,1,1.88-3.7h-26Z"/><path class="cls-5" d="M80.3,140.72a11.67,11.67,0,0,1,6-2.92,10.94,10.94,0,0,1,1.91-.16H98.56v-4.57a4.57,4.57,0,0,1,9.14,0v4.57h22.84v-4.57a4.56,4.56,0,1,1,9.11,0v4.57h22.84v-4.57a4.57,4.57,0,0,1,9.14,0v4.57h22.83v-4.57a4.56,4.56,0,1,1,9.12,0v4.57h22.83v-4.57a4.58,4.58,0,0,1,9.15,0v4.57h36.52V114.81H80.3Z"/><path class="cls-3" d="M304.05,151.2c0-7.85-4.81-13.56-11.46-13.56H281.26a0,0,0,0,1,0,0V105.7s0,0,0,0h-9.06a0,0,0,0,1,0,0V87.44s0,0,0,0H144.65a.05.05,0,0,1,0,0l-16.29-22.8,0,0H42.59A12.53,12.53,0,0,0,30.06,77.1V276.56h0a11.65,11.65,0,0,0,11.68,11.77h204.4a11.6,11.6,0,0,0,11.19-8.27l9.07-24.88a4.55,4.55,0,0,0-4.28-6.12h0a4.55,4.55,0,0,0-4.28,3l-9.2,25.23a2.63,2.63,0,0,1-2.5,1.92H41.77a2.72,2.72,0,0,1-2.61-2.88l4.59-12.59L85.59,149.06l.13-.38a2.57,2.57,0,0,1,2.47-1.92h204.4c1.74,0,2.19,2.49,2.3,3.74v0l-21.78,59.73a4.56,4.56,0,0,0,4.29,6.12h0a4.57,4.57,0,0,0,4.28-3L304.05,152ZM263,96.59v9a0,0,0,0,1,0,0H73.82L62.11,117.42a0,0,0,0,1-.07,0V96.59a0,0,0,0,1,0,0H262.92A0,0,0,0,1,263,96.59ZM71.16,121.35V133a0,0,0,0,1,0,0H59.46a0,0,0,0,1,0-.07L62,130.39l9.05-9.07A0,0,0,0,1,71.16,121.35ZM43.75,236.61l-4.47,12.24a0,0,0,0,1-.07,0V77.1a3.38,3.38,0,0,1,3.38-3.38h81s0,0,0,0l9.74,13.61a0,0,0,0,1,0,.07H52.93a0,0,0,0,0,0,0v39.15a0,0,0,0,1,0,0l-9.12,9.13V236.61ZM77,145.91l-1.45,4-22.6,62a0,0,0,0,1-.07,0V142.25s0,0,0,0H78.82a0,0,0,0,1,0,.07A10.2,10.2,0,0,0,77,145.91Zm195-8.27H235.59s0,0,0,0v-4.28a4.74,4.74,0,0,0-4.15-4.8,4.58,4.58,0,0,0-5,4.55v4.53a0,0,0,0,1,0,0H203.62a0,0,0,0,1,0,0v-4.33a4.69,4.69,0,0,0-4.14-4.75,4.57,4.57,0,0,0-5,4.55v4.53s0,0,0,0H171.67a0,0,0,0,1,0,0v-4.29a4.74,4.74,0,0,0-4.14-4.79,4.58,4.58,0,0,0-5,4.55v4.53a0,0,0,0,1,0,0H139.69a0,0,0,0,1,0,0v-4.29a4.73,4.73,0,0,0-4.16-4.79,4.55,4.55,0,0,0-5,4.55v4.53a0,0,0,0,1,0,0H107.74a0,0,0,0,1,0,0v-4.29a4.72,4.72,0,0,0-4.15-4.79,4.58,4.58,0,0,0-5,4.55v4.53a0,0,0,0,1,0,0H88.19a10.94,10.94,0,0,0-1.91.16,11.71,11.71,0,0,0-5.92,2.86,0,0,0,0,1-.06,0V114.85a0,0,0,0,1,0,0H272a0,0,0,0,1,0,0V137.6A0,0,0,0,1,272,137.64Z"/></svg>