<svg id="Layer_1" data-name="Layer 1" xmlns="http://www.w3.org/2000/svg" viewBox="0 0 330 330"><defs><style>.cls-1{fill:#d7dddf;}.cls-2{fill:#14b4db;}.cls-3{fill:#383838;}</style></defs><title>molecule</title><polygon class="cls-1" points="209.9 223.1 251.65 197.04 296.56 223.1 296.56 274.86 253.23 301.29 207.27 275.02 209.9 223.1"/><polygon class="cls-2" points="118.57 120.71 162.05 143.34 162.05 197.04 207.27 224.6 207.27 275.02 162.92 301.29 117.05 276.53 117.05 223.1 72.42 195.41 72.42 144.91 118.57 120.71"/><path class="cls-3" d="M276.2,216.47,292.7,226v47.35l-40.78,23.66-40.77-23.66V226l40.77-23.66L269,212.29l4.18-7.2-21.26-12.33L207,218.83l-40.78-23.66V143L146.87,131.8l-4.18,7.2,15.2,8.82v47.35l-40.77,23.66L76.35,195.17V147.82l40.77-23.66,18.38,10.66,4.17-7.2L121.28,117V64.81L72.19,36.32,23.09,64.81V88.67h8.32V69.6L72.19,45.94,113,69.6V117L72.19,140.61,31.41,117V97H23.09v24.75L68,147.82v47.35L23.09,221.25v56.93l18.72,10.87,4.18-7.2-14.58-8.46V226l40.78-23.66L113,226v47.35L72.19,297.05l-19-11L49,293.23l23.18,13.44,44.93-26.07,18.21,10.56L139.5,284l-18.22-10.58V226l40.77-23.66L202.83,226v47.35l-40.78,23.66-15.35-8.91-4.18,7.2,19.53,11.33L207,280.6l44.93,26.07L301,278.18V221.25l-20.64-12Zm0,0"/><path class="cls-3" d="M158.73,95.77A23.59,23.59,0,0,0,180.18,82l19.23,4.6A34.63,34.63,0,0,0,214.34,121l-6.61,8.92a23.31,23.31,0,0,0-7.95-1.39,23.61,23.61,0,1,0,15.2,5.58l6.89-9.3a34.65,34.65,0,0,0,41.15-51l7.7-7a23.72,23.72,0,1,0-6.25-5.57l-6.69,6.11a34.63,34.63,0,0,0-56,11.21l-19.49-4.66c0-.56.06-1.13.06-1.69a23.58,23.58,0,1,0-23.57,23.57ZM283,31.42a15.26,15.26,0,1,1-15.26,15.26A15.28,15.28,0,0,1,283,31.42ZM215,152.08a15.26,15.26,0,1,1-15.25-15.26A15.27,15.27,0,0,1,215,152.08Zm18.59-86.26a26.35,26.35,0,1,1-26.35,26.35,26.38,26.38,0,0,1,26.35-26.35Zm-74.89-8.88A15.26,15.26,0,1,1,143.47,72.2a15.27,15.27,0,0,1,15.26-15.26Zm0,0"/><path class="cls-3" d="M192.44,269.8l-4.18-7.2-26.21,15.21L150.25,271l-4.18,7.19,16,9.28Zm0,0"/><path class="cls-3" d="M131.67,269.81l4.17-7.2,7.2,4.18-4.18,7.2Zm0,0"/><path class="cls-3" d="M284.38,266.2V230.83l-16-9.27-4.18,7.2,11.82,6.86V266.2Zm0,0"/><path class="cls-3" d="M249.83,220.42l4.18-7.19,7.2,4.17L257,224.6Zm0,0"/><path class="cls-3" d="M41.79,269.81l4.18-7.2,13.9,8.07-4.18,7.19Zm0,0"/><path class="cls-3" d="M62.89,282.05l4.18-7.19L74.26,279l-4.17,7.2Zm0,0"/><rect class="cls-3" x="39.73" y="101.44" width="8.32" height="8.32"/><rect class="cls-3" x="39.73" y="76.79" width="8.32" height="16.33"/><path class="cls-3" d="M115,142.2l4.18-7.2,7.19,4.17-4.17,7.2Zm0,0"/><path class="cls-3" d="M149.57,188V152.61l-16-9.27-4.17,7.2,11.82,6.86V188Zm0,0"/><path class="cls-3" d="M243.33,92.17h8.32a18,18,0,0,0-18-18v8.32a9.72,9.72,0,0,1,9.71,9.71Zm0,0"/><circle class="cls-1" cx="158.73" cy="72.19" r="16.66"/><circle class="cls-2" cx="233.62" cy="93.12" r="27.59"/></svg>