<svg id="Layer_1" data-name="Layer 1" xmlns="http://www.w3.org/2000/svg" viewBox="0 0 330 330"><defs><style>.cls-1{fill:#fff;}.cls-2{fill:#14b4db;}.cls-3{fill:#383838;}</style></defs><title>page-layout-sections-icon</title><polygon class="cls-1" points="183.51 259.09 46.31 259.09 46.31 274.18 56.29 284.74 245.61 284.74 257.91 276.69 257.91 263.42 183.51 259.09"/><rect class="cls-1" x="72.18" y="50.23" width="185.73" height="223.95"/><rect class="cls-2" x="46.31" y="113.09" width="80.08" height="49.11"/><rect class="cls-2" x="203.52" y="193.75" width="80.08" height="49.11"/><rect class="cls-2" x="141.04" y="70.37" width="141.47" height="81.92"/><polygon class="cls-1" points="144.14 133.82 182.91 111.69 221 136.29 253.81 119.5 283.6 136.29 283.6 70.37 144.14 70.37 144.14 133.82"/><path class="cls-3" d="M65.18,58.38v41h8.2v-41a8.2,8.2,0,0,1,8.2-8.2h164a8.2,8.2,0,0,1,8.2,8.2H262A16.4,16.4,0,0,0,245.61,42h-164a16.4,16.4,0,0,0-16.4,16.4Zm0,0"/><path class="cls-3" d="M57,288H245.61a16.4,16.4,0,0,0,16.4-16.4v-16.4h-8.2v16.4a8.2,8.2,0,1,1-16.4,0v-12.3a4.1,4.1,0,0,0-4.1-4.1H73.38v-82h-8.2v82H44.67a4.1,4.1,0,0,0-4.1,4.1v12.3A16.41,16.41,0,0,0,57,288Zm-8.21-24.6H229.2v8.2a16.29,16.29,0,0,0,2.21,8.2H57a8.21,8.21,0,0,1-8.21-8.2Zm0,0"/><path class="cls-3" d="M44.67,165h82a4.11,4.11,0,0,0,4.1-4.1V111.69a4.11,4.11,0,0,0-4.1-4.1h-82a4.11,4.11,0,0,0-4.1,4.1V160.9a4.11,4.11,0,0,0,4.1,4.1Zm4.1-49.21h73.82v41H48.77Zm0,0"/><path class="cls-3" d="M66.38,125.19l-8.2,8.21a4.09,4.09,0,0,0,0,5.79l8.2,8.21,5.8-5.8-5.3-5.3,5.3-5.31Zm0,0"/><path class="cls-3" d="M105,125.19l-5.8,5.8,5.31,5.31-5.31,5.3,5.8,5.8,8.2-8.21a4.09,4.09,0,0,0,0-5.79Zm0,0"/><path class="cls-3" d="M77.69,147.3l8.2-24.61,7.79,2.6-8.21,24.6Zm0,0"/><path class="cls-3" d="M282.51,66.58H143.09a4.1,4.1,0,0,0-4.1,4.1v82a4.1,4.1,0,0,0,4.1,4.1H282.51a4.1,4.1,0,0,0,4.1-4.1v-82a4.1,4.1,0,0,0-4.1-4.1Zm-4.1,82H147.19v-10L184,116.52l35.9,23.22a4.12,4.12,0,0,0,4.1.2l29.68-15.38,24.71,14.11Zm0-19.37-22.55-12.9a4.1,4.1,0,0,0-3.92-.08l-29.55,15.31-36-23.31a4.09,4.09,0,0,0-4.34-.07l-34.81,20.87V74.78H278.41Zm0,0"/><path class="cls-3" d="M235.36,111.69A14.35,14.35,0,1,0,221,97.34a14.35,14.35,0,0,0,14.36,14.35Zm0-20.5a6.15,6.15,0,1,1-6.16,6.15,6.15,6.15,0,0,1,6.16-6.15Zm0,0"/><path class="cls-3" d="M81.58,177.3v49.21a4.1,4.1,0,0,0,4.1,4.1H188.2a4.1,4.1,0,0,0,4.1-4.1V177.3a4.11,4.11,0,0,0-4.1-4.1H85.68a4.11,4.11,0,0,0-4.1,4.1Zm8.2,4.1H184.1v41H89.78Zm0,0"/><rect class="cls-3" x="97.98" y="189.6" width="16.4" height="8.2"/><rect class="cls-3" x="122.59" y="189.6" width="36.91" height="8.2"/><rect class="cls-3" x="167.69" y="189.6" width="8.2" height="8.2"/><rect class="cls-3" x="97.98" y="206.01" width="49.21" height="8.2"/><rect class="cls-3" x="155.39" y="206.01" width="20.5" height="8.2"/><rect class="cls-3" x="81.58" y="58.38" width="8.2" height="8.2"/><rect class="cls-3" x="97.98" y="58.38" width="8.2" height="8.2"/><rect class="cls-3" x="114.39" y="58.38" width="8.2" height="8.2"/><rect class="cls-3" x="81.58" y="74.78" width="49.21" height="8.2"/><path class="cls-3" d="M282.51,189.6H204.6a4.11,4.11,0,0,0-4.1,4.1v49.21a4.1,4.1,0,0,0,4.1,4.1h77.91a4.09,4.09,0,0,0,4.1-4.1V193.7a4.1,4.1,0,0,0-4.1-4.1Zm-4.1,49.21H208.7v-41h69.71Zm0,0"/><rect class="cls-3" x="216.9" y="206.01" width="8.2" height="8.2"/><rect class="cls-3" x="216.9" y="222.41" width="8.2" height="8.2"/><rect class="cls-3" x="233.31" y="206.01" width="36.91" height="8.2"/><rect class="cls-3" x="233.31" y="222.41" width="36.91" height="8.2"/><rect class="cls-3" x="253.81" y="165" width="8.2" height="16.4"/></svg>