<svg id="Layer_1" data-name="Layer 1" xmlns="http://www.w3.org/2000/svg" viewBox="0 0 330 330"><defs><style>.cls-1{fill:#14b4db;}.cls-2{fill:#d7dddf;}.cls-3{fill:#383838;}</style></defs><title>Artboard 1 copy 22</title><polygon class="cls-1" points="218.19 136.25 268.65 145.56 263.02 115.66 235.64 110.54 215.37 121.78 218.19 136.25"/><polygon class="cls-2" points="213.05 138.18 213.05 164.07 228.25 184.03 252.14 187.32 275.17 169.89 273.43 142.52 213.05 138.18"/><polygon class="cls-2" points="64.05 142.52 68.4 118.63 91.86 107.34 118.22 115.66 118.22 136.25 83.81 142.52 64.05 142.52"/><polygon class="cls-1" points="124.43 131.68 128.78 99.08 169.18 82.9 206.63 105.14 203.93 131.68 181.77 121.78 156.38 136.25 130.08 138.18 124.43 131.68"/><polygon class="cls-2" points="31.04 252.42 39.74 212.89 75.78 200.04 81.43 191.53 107.49 191.53 107.49 200.04 136.59 211.16 97.5 232.44 83.81 256.77 31.04 252.42"/><polygon class="cls-1" points="78.98 297.6 83.17 247.46 112.99 221.97 147.46 212.89 166.89 255.25 188.72 215.06 241.85 233.31 254.66 279.36 254.66 300.64 78.98 297.6"/><path class="cls-3" d="M253,308.09a8.9,8.9,0,0,0,8.91-8.9v-32c0-1.11,0-2.2-.1-3.29h41.05a8.91,8.91,0,0,0,8.91-8.91V238.34a41.73,41.73,0,0,0-32.14-40.72l-15.85-3.79V191a39.86,39.86,0,0,0,17-32.67V137.71a39.84,39.84,0,0,0-65.74-30.3,52,52,0,0,0-96.41.07,39.84,39.84,0,0,0-65.83,30.23v20.61A39.86,39.86,0,0,0,69.92,191v2.84l-15.85,3.78a41.74,41.74,0,0,0-32.14,40.73V255a8.91,8.91,0,0,0,8.91,8.91H71.78c-.07,1.08-.11,2.16-.11,3.26v32a8.91,8.91,0,0,0,8.91,8.91h53.55a8.91,8.91,0,0,0,0-17.82h-9.21V271.86a8.91,8.91,0,1,0-17.81,0v18.42H89.49V267.15a36.88,36.88,0,0,1,28.38-36l24.44-5.86,16.36,37.22a8.93,8.93,0,0,0,8.16,5.33h0a8.93,8.93,0,0,0,8.16-5.33l16.34-37.17,24.37,5.83a36.87,36.87,0,0,1,28.4,36v23.1H226.49V271.86a8.91,8.91,0,1,0-17.82,0v18.42h-10.1a8.91,8.91,0,1,0,0,17.81ZM138.57,200a41.93,41.93,0,0,0-7.14-2.41l-15.91-3.81V191a40.08,40.08,0,0,0,7.72-7,52.32,52.32,0,0,0,15.33,15.36ZM70.68,158.32v-4.25H83.12a82.7,82.7,0,0,0,31.67-6.31v10.55a22.06,22.06,0,0,1-44.11,0Zm62-2.61V146.3h12.18a56.1,56.1,0,0,0,37.85-14.62l18.38,10.79V157a34.22,34.22,0,0,1-68.41-1.31ZM195.08,200v-.61A52.38,52.38,0,0,0,210.53,184a40,40,0,0,0,7.66,7v2.78l-15.92,3.81A41.41,41.41,0,0,0,195.08,200Zm23.83-41.72V157c0-.44,0-.87,0-1.31v-7.93a82.65,82.65,0,0,0,31.64,6.29H263v4.25a22.06,22.06,0,0,1-44.11,0ZM241,115.66a22.09,22.09,0,0,1,22,20.6H250.59A64.87,64.87,0,0,1,220.72,129,22.09,22.09,0,0,1,241,115.66ZM132.69,127a34.22,34.22,0,0,1,68-5.44l-15-8.81a8.92,8.92,0,0,0-11.34,2,38.38,38.38,0,0,1-29.49,13.77H132.69V127ZM92.74,115.66A22.09,22.09,0,0,1,113,129a64.89,64.89,0,0,1-29.87,7.28H70.73A22.08,22.08,0,0,1,92.74,115.66Zm21,98.18a54.66,54.66,0,0,0-37.86,32.23H39.74v-7.73A24,24,0,0,1,58.21,215l22.69-5.43a8.9,8.9,0,0,0,6.84-8.66v-3a39.24,39.24,0,0,0,5,.33,40.64,40.64,0,0,0,5-.32v2.54c0,.13,0,.27,0,.4a8.89,8.89,0,0,0,4.07,7.49,8.63,8.63,0,0,0,3.17,1.27l13.29,3.19Zm53.12,23L156.38,213v-6.36a52.19,52.19,0,0,0,20.88,0v6.39Zm53-22.95-4.47-1.07,13.36-3.2a9,9,0,0,0,3.21-1.29,8.91,8.91,0,0,0,4.07-7.49,1.48,1.48,0,0,0,0-.21v-2.73a40.8,40.8,0,0,0,5,.32,39.36,39.36,0,0,0,5-.33v3a8.9,8.9,0,0,0,6.84,8.66L275.49,215A24,24,0,0,1,294,238.34v7.73H257.73A54.64,54.64,0,0,0,219.84,213.86Z"/><path class="cls-3" d="M166.8,290.28a8.91,8.91,0,1,0,6.29,15.21,8.91,8.91,0,0,0-6.29-15.21Z"/><path class="cls-3" d="M166.79,58a8.9,8.9,0,0,0,8.91-8.9V35.78a8.91,8.91,0,0,0-17.82,0V49.11A8.9,8.9,0,0,0,166.79,58Z"/><path class="cls-3" d="M121.38,68.53A8.91,8.91,0,1,0,134,55.93l-9.34-9.34A8.91,8.91,0,0,0,112,59.19Z"/><path class="cls-3" d="M205.77,71.31a8.88,8.88,0,0,0,6.3-2.61l9.28-9.28a8.91,8.91,0,0,0-12.61-12.6l-9.27,9.29a8.9,8.9,0,0,0,6.3,15.2Z"/></svg>