<svg id="Layer_1" data-name="Layer 1" xmlns="http://www.w3.org/2000/svg" xmlns:xlink="http://www.w3.org/1999/xlink" viewBox="0 0 330 330"><defs><style>.cls-1{fill:none;}.cls-2{fill:#fff;}.cls-3{fill:#d7dddf;}.cls-4{fill:#14b4db;}.cls-5{clip-path:url(#clip-path);}.cls-6{fill:#333a38;}</style><clipPath id="clip-path"><rect class="cls-1" x="55.25" y="36.1" width="220.69" height="248.73"/></clipPath></defs><title>rocketship-paper-pencil-icon</title><rect class="cls-2" x="61.08" y="66.24" width="164.61" height="215.42"/><rect class="cls-3" x="114.29" y="75.58" width="48.57" height="88.09"/><rect class="cls-3" x="117.89" y="163.67" width="40.02" height="15.03"/><polygon class="cls-4" points="117.89 183.38 120.48 202.64 138.57 230.93 155.2 210.2 159.35 183.38 117.89 183.38"/><polygon class="cls-4" points="109.65 101.7 97.16 114.17 84.72 163.66 117.89 163.66 109.65 101.7"/><polygon class="cls-4" points="166.75 101.7 179.24 114.17 191.68 163.66 158.51 163.66 166.75 101.7"/><polygon class="cls-4" points="117.89 70.2 138.62 41.66 162.86 71.68 117.89 70.2"/><polygon class="cls-3" points="196.66 235.08 199.05 251.66 213.25 241.93 196.66 235.08"/><polygon class="cls-3" points="196.67 215.94 201.18 228.53 213.25 241.93 229.83 223.76 196.67 215.94"/><polygon class="cls-4" points="235.86 106.55 196.67 215.94 229.83 223.76 266.9 116.34 235.86 106.55"/><polygon class="cls-3" points="238.03 101.7 246.07 89.96 261.23 85.82 272.05 98.26 266.9 116.34 238.03 101.7"/><rect class="cls-4" x="79.33" y="204.54" width="11.4" height="11.4"/><circle class="cls-3" cx="200.81" cy="89.96" r="6.74"/><g class="cls-5"><path class="cls-6" d="M261.8,82.92a20.72,20.72,0,0,0-26.58,12.43l-2.82,7.8-39.88,109v1.53l.58,17.83.83,26.79a4.15,4.15,0,0,0,2.73,3.77,4,4,0,0,0,1.41.25,4.13,4.13,0,0,0,3.07-1.37L219,241l11.86-13.27.37-.46a1,1,0,0,0,0-.25,2.55,2.55,0,0,0,.29-.57l21.89-60.21a4.15,4.15,0,1,0-7.79-2.86l-20.36,56.26-3.19-1.16-4.69-1.7L254.25,115.5l7.8,2.86-9.83,27.24a4.15,4.15,0,1,0,7.8,2.82l11.27-31,2.87-7.8A20.74,20.74,0,0,0,261.8,82.92ZM243,98.26a12.4,12.4,0,1,1,23.38,8.29l-1.41,3.9-23.38-8.3ZM201.8,247.77l-.33-10.33,7.22,2.66Zm12.82-14.35-13.44-4.89-.37-8.92,3.28,1.2,16.58,5.93ZM209.68,214l-7.79-2.82,36.86-101.33,7.46,2.74h.33Zm0,0"/></g><path class="cls-6" d="M180.08,69.23h37.31a4.15,4.15,0,0,1,4.15,4.15V86.07a4.15,4.15,0,0,0,8.29,0V73.38a12.44,12.44,0,0,0-12.44-12.44H180.08a4.15,4.15,0,1,0,0,8.29Zm0,0"/><path class="cls-6" d="M225.69,249.59a4.15,4.15,0,0,0-4.15,4.15v18.65a4.15,4.15,0,0,1-4.15,4.15H68.13A4.14,4.14,0,0,1,64,272.39v-199a4.14,4.14,0,0,1,4.14-4.15H101.3a4.15,4.15,0,1,0,0-8.29H68.13A12.43,12.43,0,0,0,55.7,73.38v199a12.43,12.43,0,0,0,12.43,12.44H217.39a12.44,12.44,0,0,0,12.44-12.44V253.74a4.14,4.14,0,0,0-4.14-4.15Zm0,0"/><path class="cls-6" d="M109.6,96.56,94.21,111.89a4.28,4.28,0,0,0-1.08,2L80.7,163.6a4.11,4.11,0,0,0,4,5.14H97.16a4.15,4.15,0,0,0,0-8.29H90L100.89,117l8.71-8.7v52.2a8.28,8.28,0,0,0,4.14,7.17v21a45.3,45.3,0,0,0,3.44,17.46H109.6a4.15,4.15,0,1,0,0,8.29h12.1q.26.41.54.78l13,18.21a4.15,4.15,0,0,0,6.76,0l13.18-18.62a45.57,45.57,0,0,0,8.29-25.25V167.62a8.27,8.27,0,0,0,4.15-7.17v-52.2l8.71,8.7,10.86,43.5h-7.13a4.15,4.15,0,1,0,0,8.29h12.44a4.12,4.12,0,0,0,4-5.14L184.1,113.84a4.19,4.19,0,0,0-1.08-2L167.64,96.56V94.11h8.29a4.15,4.15,0,1,0,0-8.29h-8.29V72.55a4.07,4.07,0,0,0-.75-1.62L142,37.76a4.15,4.15,0,0,0-6.64,0L110.51,70.93a4.07,4.07,0,0,0-.75,1.62v.83ZM155.2,177H122v-8.29H155.2Zm0,12.07a37.33,37.33,0,0,1-6.8,20.73l-9.78,13.93-6.76-9.41h6.76a4.15,4.15,0,0,0,0-8.29H126.18A37.46,37.46,0,0,1,122,188.6v-3.27H155.2Zm-4.14-95h8.29v66.34H117.89V77.53h41.46v8.29h-8.29a4.15,4.15,0,1,0,0,8.29Zm-12.44-47,16.58,22.1H122Zm0,0"/><path class="cls-6" d="M142.76,110.69a4.15,4.15,0,1,1-4.14-4.14,4.15,4.15,0,0,0,0-8.29,12.44,12.44,0,1,0,12.44,12.43,4.15,4.15,0,0,0-8.3,0Zm0,0"/><path class="cls-6" d="M146.91,131.43H130.33a4.15,4.15,0,1,0,0,8.29h16.58a4.15,4.15,0,1,0,0-8.29Zm0,0"/><path class="cls-6" d="M72.28,214.35a8.29,8.29,0,0,0,8.29,8.29h8.29a8.3,8.3,0,0,0,8.3-8.29v-8.29a8.3,8.3,0,0,0-8.3-8.3H80.57a8.29,8.29,0,0,0-8.29,8.3Zm8.29-8.29h8.29v8.29H80.57Zm0,0"/><path class="cls-6" d="M188.37,90a12.44,12.44,0,1,0,12.44-12.43A12.44,12.44,0,0,0,188.37,90ZM205,90a4.15,4.15,0,1,1-4.15-4.14A4.15,4.15,0,0,1,205,90Zm0,0"/><path class="cls-6" d="M76.43,94.11H93a4.15,4.15,0,1,0,0-8.29H76.43a4.15,4.15,0,1,0,0,8.29Zm0,0"/><path class="cls-6" d="M76.43,110.69h8.29a4.15,4.15,0,0,0,0-8.29H76.43a4.15,4.15,0,1,0,0,8.29Zm0,0"/><path class="cls-6" d="M159.35,226.79v8.29a8.29,8.29,0,0,0,8.29,8.29h8.29a8.3,8.3,0,0,0,8.3-8.29v-8.29a8.31,8.31,0,0,0-8.3-8.3h-8.29a8.3,8.3,0,0,0-8.29,8.3Zm16.58,8.29h-8.29v-8.29h8.29Zm0,0"/><path class="cls-6" d="M180.08,206.06V181.18a4.15,4.15,0,1,0-8.29,0v24.88a4.15,4.15,0,0,0,8.29,0Zm0,0"/><path class="cls-6" d="M134.47,251.66a4.15,4.15,0,1,0,0-8.29h-58a4.15,4.15,0,0,0-4.15,4.15V264.1a4.15,4.15,0,0,0,4.15,4.15h58a4.15,4.15,0,1,0,0-8.29H80.57v-8.3Zm0,0"/></svg>