<svg id="Layer_1" data-name="Layer 1" xmlns="http://www.w3.org/2000/svg" viewBox="0 0 330 330"><defs><style>.cls-1{fill:#d7dddf;}.cls-2{fill:#fff;}.cls-3{fill:#383838;}.cls-4{fill:#14b4db;}</style></defs><title>website-search-icon</title><rect class="cls-1" x="36.45" y="43.18" width="246.44" height="37.12"/><rect class="cls-2" x="36.45" y="80.31" width="246.44" height="204.59"/><path class="cls-3" d="M143,66.73H257.37a5.51,5.51,0,0,0,0-11H143a5.51,5.51,0,1,0,0,11Z"/><path class="cls-3" d="M83.26,66.73a5.51,5.51,0,0,0,0-11,5.51,5.51,0,0,0,0,11Z"/><path class="cls-3" d="M63,66.73a5.53,5.53,0,1,0-3.89-1.62A5.55,5.55,0,0,0,63,66.73Z"/><path class="cls-3" d="M103.5,66.73a5.51,5.51,0,1,0-3.9-1.62A5.55,5.55,0,0,0,103.5,66.73Z"/><path class="cls-3" d="M130.89,144.47a5.51,5.51,0,0,0-7.35,2.58l-7.22,15-7.86-15.18a5.51,5.51,0,0,0-9.86.15l-7.22,15L83.52,146.9A5.51,5.51,0,1,0,73.74,152l12.93,25a5.51,5.51,0,0,0,9.86-.15l7.22-15L111.61,177a5.52,5.52,0,0,0,4.89,3h.09a5.51,5.51,0,0,0,4.88-3.12l12-25A5.5,5.5,0,0,0,130.89,144.47Z"/><path class="cls-3" d="M257.14,144.47a5.51,5.51,0,0,0-7.35,2.58l-7.22,15-7.86-15.18a5.51,5.51,0,0,0-9.86.15l-7.22,15-7.86-15.18A5.51,5.51,0,0,0,200,152l12.94,25a5.52,5.52,0,0,0,4.89,3h.09a5.51,5.51,0,0,0,4.88-3.12l7.22-15L237.86,177a5.51,5.51,0,0,0,4.89,3h.08a5.52,5.52,0,0,0,4.89-3.12l12-25A5.51,5.51,0,0,0,257.14,144.47Z"/><path class="cls-4" d="M61.53,245.74a5.52,5.52,0,1,0,7.79,0,5.52,5.52,0,0,0-7.79,0Z"/><path class="cls-4" d="M78.84,249.64a5.51,5.51,0,0,0,5.51,5.51H191.63a5.51,5.51,0,1,0,0-11H84.35A5.51,5.51,0,0,0,78.84,249.64Z"/><path class="cls-4" d="M171.21,228.7a5.51,5.51,0,0,0,0-11H138.7a5.51,5.51,0,0,0,0,11Z"/><path class="cls-4" d="M114,217.68H65.43a5.51,5.51,0,0,0,0,11H114a5.51,5.51,0,1,0,0-11Z"/><polygon class="cls-2" points="306.16 224.92 306.16 267.41 262.91 223.19 283.19 201.95 306.16 224.92"/><path class="cls-3" d="M311.17,265.34,267.8,222l6.8-6.81h0l6.8-6.8,21.43,21.43a5.51,5.51,0,1,0,7.79-7.8l-25.32-25.32a5.51,5.51,0,0,0-7.79,0l-6.81,6.81-3.3-3.3a64.49,64.49,0,0,0-96-86.06h-106a5.51,5.51,0,0,0-5.51,5.5v77.14a5.51,5.51,0,0,0,5.51,5.5H170.59a64.4,64.4,0,0,0,89,5.71l3.3,3.3-6.81,6.81a5.49,5.49,0,0,0,0,7.79L279.19,249v23.82a12.13,12.13,0,0,1-12.12,12.12H53.31a12.13,12.13,0,0,1-12.12-12.12V86.56h238v24.83a5.51,5.51,0,0,0,11,0V59a23.17,23.17,0,0,0-23.14-23.14H53.31A23.17,23.17,0,0,0,30.17,59V272.77a23.17,23.17,0,0,0,23.14,23.14H267.07a23.17,23.17,0,0,0,23.14-23.14V260l13.16,13.17a5.51,5.51,0,0,0,7.8-7.79ZM70.94,191.24V125.12h92a64.2,64.2,0,0,0-9.4,33.52c0,.56,0,1.12,0,1.67l-7-13.41a5.51,5.51,0,1,0-9.78,5.07l12.94,25a5.51,5.51,0,0,0,4.89,3,5.59,5.59,0,0,0,2.31-.52,64,64,0,0,0,5.43,11.82Zm93.64-32.6c0-.42,0-.84,0-1.26L174.74,177a5.5,5.5,0,0,0,4.89,3h.08a5.5,5.5,0,0,0,4.88-3.12l12-25a5.51,5.51,0,0,0-9.94-4.77l-7.22,15-7.86-15.18a5.5,5.5,0,0,0-4.94-3,53.5,53.5,0,1,1-2.06,14.71ZM53.31,46.89H267.07A12.14,12.14,0,0,1,279.19,59V75.54h-238V59A12.14,12.14,0,0,1,53.31,46.89Z"/></svg>