<svg id="Layer_1" data-name="Layer 1" xmlns="http://www.w3.org/2000/svg" viewBox="0 0 330 330"><defs><style>.cls-1{fill:#d7dddf;}.cls-2{fill:#fff;}.cls-3{fill:#333a38;}.cls-4{fill:#14b4db;}</style></defs><title>website-security-lock-icon</title><rect class="cls-1" x="64.17" y="66.34" width="215.51" height="34.18"/><rect class="cls-2" x="63.02" y="101.85" width="217.82" height="139.45"/><path class="cls-3" d="M270.74,62H71.18a14,14,0,0,0-14,14v156.8a14,14,0,0,0,14,14h35.64a3.34,3.34,0,0,0,0-6.67H71.18a7.36,7.36,0,0,1-7.35-7.35V104.3H278.1V232.82a7.36,7.36,0,0,1-7.36,7.35H235.11a3.34,3.34,0,1,0,0,6.67h35.63a14,14,0,0,0,14-14V76A14,14,0,0,0,270.74,62ZM63.83,97.63V76a7.36,7.36,0,0,1,7.35-7.35H270.74A7.36,7.36,0,0,1,278.1,76V97.63Z"/><path class="cls-3" d="M74.78,79.81h0a3.34,3.34,0,1,0,3.37,3.34A3.33,3.33,0,0,0,74.75,79.81Z"/><path class="cls-3" d="M96.13,79.81h0a3.34,3.34,0,1,0,3.37,3.34A3.32,3.32,0,0,0,96.09,79.81Z"/><path class="cls-3" d="M85.44,79.81h0a3.34,3.34,0,1,0,3.37,3.34A3.32,3.32,0,0,0,85.4,79.81Z"/><path class="cls-4" d="M267.18,79.81H110.38a3.34,3.34,0,0,0,0,6.67h156.8a3.34,3.34,0,0,0,0-6.67Z"/><path class="cls-3" d="M171,278.91a53.28,53.28,0,0,0,53.23-53.22V193.62A14,14,0,0,0,213.5,180V161.55a42.54,42.54,0,1,0-85.07,0V180a14,14,0,0,0-10.69,13.62v32.07A53.28,53.28,0,0,0,171,278.91"/><path class="cls-2" d="M171,125.68a35.91,35.91,0,0,1,35.87,35.87v18h-7.59v-18a28.28,28.28,0,0,0-56.56,0v18H135.1v-18A35.91,35.91,0,0,1,171,125.68Z"/><path class="cls-2" d="M217.52,225.69a46.56,46.56,0,1,1-93.11,0V193.62a7.36,7.36,0,0,1,7.35-7.36h42.77a3.34,3.34,0,0,0,0-6.67H149.35v-18a21.61,21.61,0,1,1,43.22,0v18h-3.79a3.34,3.34,0,0,0,0,6.67h21.38a7.37,7.37,0,0,1,7.36,7.36v32.07Z"/><path class="cls-4" d="M171,208.1a14,14,0,0,0-3.33,27.65v11.32a3.34,3.34,0,1,0,6.67,0V235.75A14,14,0,0,0,171,208.1Zm0,21.38a7.36,7.36,0,1,1,7.36-7.35A7.36,7.36,0,0,1,171,229.48Z"/></svg>