<svg id="Layer_1" data-name="Layer 1" xmlns="http://www.w3.org/2000/svg" viewBox="0 0 210.52 259.84"><defs><style>.cls-1{fill:#fff;}.cls-2{fill:#d6dcde;}.cls-3{fill:#10b3da;}.cls-4{fill:#333a38;}</style></defs><title>code-circuit-icon</title><rect class="cls-1" x="24.76" y="61.29" width="161.44" height="137.69"/><rect class="cls-2" x="26.86" y="65.04" width="156.86" height="20.39"/><path class="cls-3" d="M47.21,78h76.64a3.81,3.81,0,0,0,0-7.62H47.21a3.81,3.81,0,0,0,0,7.62Z"/><path class="cls-4" d="M140,77.72a3.81,3.81,0,0,0,3.81-3.8V73.5a3.81,3.81,0,0,0-7.62,0v.42A3.81,3.81,0,0,0,140,77.72Z"/><path class="cls-4" d="M151.63,77.72a3.81,3.81,0,0,0,3.81-3.8V73.5a3.81,3.81,0,0,0-7.62,0v.42A3.81,3.81,0,0,0,151.63,77.72Z"/><path class="cls-4" d="M163.31,77.72a3.81,3.81,0,0,0,3.81-3.8V73.5a3.81,3.81,0,1,0-7.61,0v.42A3.8,3.8,0,0,0,163.31,77.72Z"/><path class="cls-4" d="M71.38,121A3.8,3.8,0,0,0,66,121L49.07,137.89a3.81,3.81,0,0,0,0,5.39L66,160.2a3.8,3.8,0,0,0,5.38-5.38L57.15,140.58l14.23-14.23A3.81,3.81,0,0,0,71.38,121Z"/><path class="cls-4" d="M139.14,160.2a3.8,3.8,0,0,0,5.39,0l16.92-16.92a3.81,3.81,0,0,0,0-5.39L144.53,121a3.81,3.81,0,1,0-5.39,5.38l14.24,14.23-14.24,14.24A3.81,3.81,0,0,0,139.14,160.2Z"/><path class="cls-4" d="M101.71,122.55a3.8,3.8,0,0,0-5.15,1.57l-16.87,31.6a3.8,3.8,0,1,0,6.71,3.58l16.88-31.6A3.8,3.8,0,0,0,101.71,122.55Z"/><path class="cls-4" d="M100.38,156.71v.38a3.81,3.81,0,1,0,7.61,0v-.38a3.81,3.81,0,1,0-7.61,0Z"/><path class="cls-4" d="M120.39,157.09v-.38a3.81,3.81,0,1,0-7.61,0v.38a3.81,3.81,0,1,0,7.61,0Z"/><path class="cls-4" d="M129,152.9a3.81,3.81,0,0,0-3.81,3.81v.38a3.81,3.81,0,0,0,7.62,0v-.38A3.81,3.81,0,0,0,129,152.9Z"/><rect class="cls-1" x="5.19" y="218.99" width="21.67" height="21.67"/><rect class="cls-3" x="94.64" y="233.04" width="21.67" height="21.67"/><rect class="cls-2" x="183.72" y="219.42" width="21.67" height="21.67"/><rect class="cls-1" x="186.2" y="18.75" width="21.67" height="21.67"/><rect class="cls-3" x="92.89" y="5.14" width="21.67" height="21.67"/><rect class="cls-3" x="5.14" y="18.75" width="21.67" height="21.67"/><path class="cls-4" d="M202.13,13.61H187a8.41,8.41,0,0,0-8.4,8.4v3.77h-19A8.26,8.26,0,0,0,151.36,34V57.94H109.07v-26h3.77a8.41,8.41,0,0,0,8.39-8.4V8.39A8.41,8.41,0,0,0,112.84,0H97.69a8.41,8.41,0,0,0-8.4,8.4V23.54a8.41,8.41,0,0,0,8.4,8.4h3.76V58H59.16V34a8.26,8.26,0,0,0-8.25-8.25h-19V22a8.41,8.41,0,0,0-8.4-8.4H8.4A8.41,8.41,0,0,0,0,22V37.16a8.41,8.41,0,0,0,8.4,8.39H23.54a8.4,8.4,0,0,0,8.4-8.39V33.39h19a.64.64,0,0,1,.64.64V57.94H32.26A10.15,10.15,0,0,0,22.12,68.08v92.81a3.81,3.81,0,1,0,7.61,0V89.47H180.79v15.26a3.81,3.81,0,0,0,7.61,0V68.08a10.15,10.15,0,0,0-10.14-10.14H159V34a.64.64,0,0,1,.64-.64h19v3.77a8.41,8.41,0,0,0,8.4,8.39h15.15a8.39,8.39,0,0,0,8.39-8.39V22A8.4,8.4,0,0,0,202.13,13.61ZM96.9,23.54V8.39a.79.79,0,0,1,.79-.78h15.15a.78.78,0,0,1,.78.78V23.54a.79.79,0,0,1-.78.79H97.69A.8.8,0,0,1,96.9,23.54ZM24.33,37.16a.78.78,0,0,1-.79.78H8.4a.78.78,0,0,1-.79-.78V22a.79.79,0,0,1,.79-.79H23.54a.79.79,0,0,1,.79.79ZM180.79,68.08V81.86H29.73V68.08a2.53,2.53,0,0,1,2.53-2.52h146A2.53,2.53,0,0,1,180.79,68.08Zm22.12-30.92a.78.78,0,0,1-.78.78H187a.78.78,0,0,1-.78-.78V22a.79.79,0,0,1,.78-.79h15.15a.78.78,0,0,1,.78.79Z"/><path class="cls-4" d="M202.13,214.29H187a8.4,8.4,0,0,0-8.4,8.39v3.77h-19a.64.64,0,0,1-.64-.64V201.9H181.7a6.72,6.72,0,0,0,6.7-6.71V120.26a3.81,3.81,0,0,0-7.61,0v74H138.91a3.81,3.81,0,0,0,0,7.62h12.45v23.91a8.26,8.26,0,0,0,8.25,8.25h19v3.77a8.41,8.41,0,0,0,8.4,8.4h15.15a8.4,8.4,0,0,0,8.39-8.4V222.68A8.39,8.39,0,0,0,202.13,214.29Zm.78,23.54a.78.78,0,0,1-.78.78H187a.78.78,0,0,1-.78-.78V222.68a.78.78,0,0,1,.78-.78h15.15a.78.78,0,0,1,.78.78Z"/><path class="cls-4" d="M123.37,194.28H29.73V176.43a3.81,3.81,0,1,0-7.61,0v18.76a6.72,6.72,0,0,0,6.7,6.71H51.55v23.91a.64.64,0,0,1-.64.64h-19v-3.77a8.4,8.4,0,0,0-8.4-8.39H8.4A8.4,8.4,0,0,0,0,222.68v15.15a8.41,8.41,0,0,0,8.4,8.4H23.54a8.41,8.41,0,0,0,8.4-8.4v-3.77h19a8.26,8.26,0,0,0,8.25-8.25V201.9h42.29v26H97.69a8.41,8.41,0,0,0-8.4,8.4v15.14a8.41,8.41,0,0,0,8.4,8.4h15.15a8.41,8.41,0,0,0,8.39-8.4V236.3a8.41,8.41,0,0,0-8.39-8.4h-3.77v-26h14.3a3.81,3.81,0,1,0,0-7.62Zm-99,43.55a.78.78,0,0,1-.79.78H8.4a.78.78,0,0,1-.79-.78V222.68a.78.78,0,0,1,.79-.78H23.54a.78.78,0,0,1,.79.78Zm89.29-1.53v15.14a.79.79,0,0,1-.79.79H97.69a.79.79,0,0,1-.79-.79V236.3a.79.79,0,0,1,.79-.79h15.14A.79.79,0,0,1,113.62,236.3Z"/></svg>