<svg id="Layer_1" data-name="Layer 1" xmlns="http://www.w3.org/2000/svg" viewBox="0 0 280.74 280.74"><defs><style>.cls-1{fill:#d6dcde;}.cls-2{fill:#fff;}.cls-3{fill:#10b3da;}.cls-4{fill:#383838;}</style></defs><title>computer-seo-ranking-icon</title><polygon class="cls-1" points="122.62 224.05 103.39 274.87 187.12 276.83 164.97 201.57 124.25 211.67 122.62 224.05"/><polygon class="cls-1" points="31.72 219.9 258.9 219.38 262.38 78.62 31.72 78.62 31.72 219.9"/><rect class="cls-2" x="29.55" y="97.75" width="186.79" height="93.83"/><circle class="cls-2" cx="188.75" cy="194.73" r="60.92"/><circle class="cls-3" cx="186.8" cy="193.1" r="43"/><polygon class="cls-2" points="10.22 130.22 26.51 100.9 43.45 103.83 57.13 115.23 37.26 148.14 27.16 135.43 9.24 136.08 10.22 130.22"/><rect class="cls-3" x="126.2" y="44.35" width="131.62" height="34.39"/><polygon class="cls-2" points="4.35 61.48 17.39 79.72 21.3 100.57 43.45 103.83 59.41 116.54 80.26 103.5 101.44 101.88 105.35 79.07 116.43 61.8 103.72 42.26 100.79 21.73 77.33 17.5 59.41 4.46 42.15 18.15 19.67 21.73 19.34 46.82 4.35 61.48"/><circle class="cls-3" cx="59.09" cy="60.39" r="26.93"/><path class="cls-4" d="M23.39,163.76v42.11a23.43,23.43,0,0,0,23.4,23.4H115L99.66,271.38H84.22v9.36H205.87v-9.36H190.43l-3.56-9.79-8.79,3.21,2.39,6.58H109.62l16.43-45.19a4.69,4.69,0,0,0-4.4-6.28H46.79a14,14,0,0,1-14-14v-9.36h79.54v-9.35H32.75v-23.4Z"/><path class="cls-4" d="M257.34,60.83v145a14,14,0,0,1-3.51,9.29l7,6.19a23.4,23.4,0,0,0,5.85-15.48v-145a23.43,23.43,0,0,0-23.4-23.4H121.65v9.36H243.3A14,14,0,0,1,257.34,60.83Z"/><path class="cls-4" d="M191.84,56.15h9.35V65.5h-9.35Z"/><path class="cls-4" d="M210.55,56.15h9.36V65.5h-9.36Z"/><path class="cls-4" d="M229.27,56.15h9.36V65.5h-9.36Z"/><path class="cls-4" d="M121.65,74.86h117v9.36h-117Z"/><path class="cls-4" d="M126.33,131h9.36v9.36h-9.36Z"/><path class="cls-4" d="M117,102.94h93.58v18.71h9.36V98.26a4.68,4.68,0,0,0-4.68-4.68H117Z"/><path class="cls-4" d="M117,112.29h9.36v9.36H117Z"/><path class="cls-4" d="M135.69,112.29h9.36v9.36h-9.36Z"/><path class="cls-4" d="M60.83,149.73h9.35v9.35H60.83Z"/><path class="cls-4" d="M98.26,149.73h23.39v9.35H98.26Z"/><path class="cls-4" d="M60.83,168.44h51.46v9.36H60.83Z"/><path class="cls-4" d="M16.5,101.28a4.66,4.66,0,0,0,3,3.59L5.17,133.6a4.68,4.68,0,0,0,4.19,6.77H25.57l8,11.95a4.67,4.67,0,0,0,3.91,2.08h.29a4.67,4.67,0,0,0,3.9-2.57l15.77-31.58.7.5a4.67,4.67,0,0,0,5.47,0l.7-.5L80,151.8a4.69,4.69,0,0,0,3.9,2.58l.29,0a4.66,4.66,0,0,0,3.89-2.08l8-11.95h16.21a4.67,4.67,0,0,0,4.19-6.77l-14.36-28.73a4.66,4.66,0,0,0,3-3.59l3.34-20.7,12.28-17a4.67,4.67,0,0,0,0-5.47l-12.28-17-3.34-20.71a4.68,4.68,0,0,0-3.87-3.87l-20.7-3.34L63.56.88a4.7,4.7,0,0,0-5.47,0l-17,12.28L20.37,16.5a4.68,4.68,0,0,0-3.87,3.87L13.16,41.08.88,58.09a4.7,4.7,0,0,0,0,5.47l12.28,17Zm20.35,39.14L32,133.09a4.69,4.69,0,0,0-3.9-2.08H16.93l12.22-24.44,11.93,1.92,8.62,6.23ZM104.72,131H93.58a4.66,4.66,0,0,0-3.89,2.08l-4.89,7.33L72,114.72l8.63-6.23,11.93-1.92ZM21.39,45.66a4.67,4.67,0,0,0,.83-2l3-18.46,18.46-3a4.67,4.67,0,0,0,2-.83L60.83,10.45,76,21.39a4.58,4.58,0,0,0,2,.83l18.47,3,3,18.46a4.55,4.55,0,0,0,.83,2L111.2,60.83,100.27,76a4.51,4.51,0,0,0-.83,2l-3,18.47-2,.33L78,99.44a4.55,4.55,0,0,0-2,.83L60.83,111.2,45.66,100.27a4.55,4.55,0,0,0-2-.83L27.25,96.78l-2-.33L22.23,78a4.63,4.63,0,0,0-.83-2L10.45,60.83Z"/><path class="cls-4" d="M60.83,93.58A32.76,32.76,0,1,0,28.07,60.83,32.75,32.75,0,0,0,60.83,93.58Zm0-56.15a23.4,23.4,0,1,1-23.4,23.4A23.4,23.4,0,0,1,60.83,37.43Z"/><path class="cls-4" d="M56.15,46.79H65.5V74.86H56.15Z"/><path class="cls-4" d="M187.16,145.05A46.79,46.79,0,1,0,234,191.84,46.79,46.79,0,0,0,187.16,145.05Zm0,84.22a37.44,37.44,0,1,1,37.43-37.43A37.43,37.43,0,0,1,187.16,229.27Z"/><path class="cls-4" d="M159.08,191.84h9.36a18.72,18.72,0,0,1,18.72-18.72v-9.36A28.12,28.12,0,0,0,159.08,191.84Z"/><polygon class="cls-1" points="227.52 239.03 262.38 276.83 276.71 273.57 276.06 260.54 238.92 226.33 227.52 239.03"/><path class="cls-4" d="M266.13,280.74a14.6,14.6,0,0,0,10.33-24.93l-32.12-32.12a65.73,65.73,0,1,0-19.59,21.71l31.06,31.06A14.68,14.68,0,0,0,266.13,280.74Zm-79-32.76a56.15,56.15,0,1,1,56.14-56.14A56.14,56.14,0,0,1,187.16,248Zm51.9-16.34,30.78,30.78a5.25,5.25,0,0,1-7.42,7.42L232,239.43A66.73,66.73,0,0,0,239.06,231.64Z"/></svg>