<svg id="Layer_1" data-name="Layer 1" xmlns="http://www.w3.org/2000/svg" viewBox="0 0 280.59 280.59"><defs><style>.cls-1{fill:#d6dcde;}.cls-2{fill:#333a38;}.cls-3{fill:#10b3da;}.cls-4{fill:#fff;}</style></defs><title>security-rating-icon</title><polygon class="cls-1" points="4.72 103.6 4.72 33.25 98.25 4.68 189.83 32.49 192.5 106.98 180.05 114 177.71 137.47 187.06 162.75 121.3 162.75 112.51 173.8 118.6 191.74 116.91 205.79 129.27 221.41 121.3 231.69 121.3 237.03 99.18 252.53 46.23 213.03 19.33 170.37 4.72 103.6"/><path class="cls-2" d="M246.08,60.05l-6.4,6.83a68.39,68.39,0,0,1,6,6.37l7.19-6a80.09,80.09,0,0,0-6.81-7.22Zm0,0"/><path class="cls-2" d="M271.24,118.08c0-1.84-.06-3.65-.19-5.45l-9.33.63c.11,1.59.16,3.2.16,4.82,0,1.32,0,2.64-.11,4l9.36.53c.07-1.48.11-3,.11-4.48Zm0,0"/><path class="cls-2" d="M238.43,53.73a79.61,79.61,0,0,0-8.38-5.33l-4.52,8.19a70.27,70.27,0,0,1,7.4,4.67Zm0,0"/><path class="cls-2" d="M270,132.41l-9.21-1.67a68.78,68.78,0,0,1-2.1,8.49l8.91,2.81a79.71,79.71,0,0,0,2.4-9.63Zm0,0"/><path class="cls-2" d="M221.06,44.16a76.64,76.64,0,0,0-9.45-3.08l-2.34,9.06a69.79,69.79,0,0,1,8.33,2.71Zm0,0"/><path class="cls-2" d="M253.12,152.06l8.18,4.53c.94-1.71,1.87-3.47,2.67-5.27l-8.49-3.91q-1.08,2.37-2.36,4.65Zm0,0"/><path class="cls-2" d="M250.87,80.33A71.15,71.15,0,0,1,255.12,88l8.44-4a79.79,79.79,0,0,0-4.81-8.68Zm0,0"/><path class="cls-2" d="M258.38,96.1a70.26,70.26,0,0,1,2.21,8.47l9.17-1.78a77.66,77.66,0,0,0-2.5-9.62Zm0,0"/><path class="cls-2" d="M210.38,89.19a29.71,29.71,0,0,1,18.77,27.72h9.35a39,39,0,0,0-24.65-36.4l-1.67-.67-3.48,8.68Zm0,0"/><polygon class="cls-3" points="33.41 55.42 32.33 102.19 35.7 130.47 46.61 156.59 64.64 179.64 98.21 205.28 137.52 178.88 158.87 137.47 163.17 100.16 163.17 51.41 98.21 32.36 33.41 55.42"/><polygon class="cls-4" points="220.05 162.63 210.65 139.01 208.7 115.9 192.5 106.98 180.05 114 175.35 136.39 187.06 162.75 132.19 161.1 120.25 166.69 112.51 173.8 118.73 185.99 129.9 194 119.49 197.67 121.3 213.66 129.27 221.41 122.28 229.41 123.81 239.31 130.92 247.28 127.11 259.12 132.69 271.24 158.87 277.15 221.32 275.88 248.49 256.83 247.22 171.51 220.05 162.63"/><rect class="cls-1" x="249.5" y="174.05" width="23.87" height="80.75"/><path class="cls-2" d="M275.91,168.35H248.62l-25.29-8.41-8.21-20.54V123.93a21,21,0,0,0-18.74-20.81c0-.64,0-1.28,0-1.92V32.74a4.67,4.67,0,0,0-3.33-4.48L99.55.2a4.57,4.57,0,0,0-2.69,0L3.33,28.26A4.68,4.68,0,0,0,0,32.74V101.2c0,2.17.15,4.31.22,6.46.12,3.16.3,6.3.58,9.42,0,.53.11,1,.16,1.55A172.75,172.75,0,0,0,96.12,256.74a4.66,4.66,0,0,0,4.18,0,174.38,174.38,0,0,0,20.21-11.91,18.76,18.76,0,0,0,5.46,5,18.7,18.7,0,0,0,14.33,30.72h79.5a4.69,4.69,0,0,0,2.59-.78l26.87-17.92h26.65a4.68,4.68,0,0,0,4.68-4.68V173a4.68,4.68,0,0,0-4.68-4.68Zm-101.21-23L180.15,159H153a121.18,121.18,0,0,0,15.34-58.24l18.74-5.62v6.06c0,1,0,2-.05,3a21,21,0,0,0-14,19.74v12.76a23.48,23.48,0,0,0,1.67,8.69Zm-67.14,32.33a18.65,18.65,0,0,0,5.14,12.83c-1.73,1.26-3.43,2.57-5.23,3.74l-9.26,5.93-9.25-6A111.81,111.81,0,0,1,44.1,138L158.87,103.6A111.87,111.87,0,0,1,142.08,159H126.27a18.71,18.71,0,0,0-18.71,18.71Zm-95.67-48c0-.23-.08-.46-.11-.69l18.58-5.56c.55,2.81,1.22,5.61,2,8.35l-18.85,5.66c-.62-2.68-1.13-5.24-1.59-7.76ZM9.74,110.93l18.49-5.55c.13,2.93.35,5.84.69,8.73l-18.46,5.54c-.05-.42-.08-.84-.13-1.26-.24-2.41-.45-4.86-.59-7.46ZM159,56.38,37.41,92.86V59.42l61-21.77L159,55Zm0,9.77v8.94L38.05,111.37c-.3-2.9-.48-5.83-.55-8.77Zm28.06,10.28v8.94L168.35,91V82.05Zm0-9.76-18.71,5.61V63.34l18.71-5.61ZM39.36,120.74l76.09-22.82L159,84.85v8.94L41.28,129.11c-.74-2.76-1.4-5.54-1.92-8.37Zm-30-84.52L98.21,9.56l88.85,26.66V48l-18.71,5.61V51.44A4.67,4.67,0,0,0,165,47L99.49,28.24a4.63,4.63,0,0,0-2.85.09L31.16,51.71a4.68,4.68,0,0,0-3.1,4.41V95.66L9.35,101.28ZM98.21,247.28A163.48,163.48,0,0,1,15.65,146.56l19.49-5.84A121.08,121.08,0,0,0,83.9,202.13l11.78,7.57a4.68,4.68,0,0,0,5.06,0l11.78-7.57.12-.08a18.48,18.48,0,0,0,8.66,19.74,18.72,18.72,0,0,0-4.39,12c0,.65.06,1.3.13,1.94a163.12,163.12,0,0,1-18.83,11.51Zm120.18,24H140.3a9.32,9.32,0,0,1-.78-18.61,4.78,4.78,0,0,0,4.28-5,4.68,4.68,0,0,0-4.68-4.49h-3.5a9.36,9.36,0,0,1,0-18.71,4.68,4.68,0,1,0,0-9.35h-4.68a9.36,9.36,0,0,1,0-18.71,4.68,4.68,0,1,0,0-9.35h-4.67a9.36,9.36,0,1,1,0-18.71h60.79a4.65,4.65,0,0,0,3.88-2,4.7,4.7,0,0,0,.47-4.36l-8-20a13.93,13.93,0,0,1-1-5.22V123.93a11.7,11.7,0,0,1,23.39,0V140.3a4.76,4.76,0,0,0,.33,1.74l9.35,23.38a4.73,4.73,0,0,0,2.87,2.7l24.86,8.28v78.31Zm52.85-18.71H252.53V177.71h18.71Zm0,0"/></svg>