<svg id="Layer_1" data-name="Layer 1" xmlns="http://www.w3.org/2000/svg" viewBox="0 0 269.27 287.22"><defs><style>.cls-1{fill:#10b3da;}.cls-2{fill:#fff;}.cls-3{fill:#383838;}</style></defs><title>usability-design-icon</title><circle class="cls-1" cx="27.9" cy="96.81" r="17.77"/><circle class="cls-1" cx="245.16" cy="63.47" r="17.77"/><polygon class="cls-1" points="86.51 63.47 74.01 42.22 97.95 14.76 126.82 14.76 144.88 37.74 136.26 63.47 111.39 45.7 86.51 63.47"/><polygon class="cls-2" points="60.72 140.98 60.72 208.09 82.22 236.11 93.95 262.18 95.25 280.42 213.84 279.77 212.53 255.66 228.82 219.17 228.17 120.78 197.55 117.53 185.82 97.98 169.53 97.98 160.41 99.93 130.43 95.37 126.53 58.88 111.39 45.7 91.99 58.88 90.69 132.51 66.58 132.51 60.72 140.98"/><path class="cls-3" d="M25.24,117.8A25.22,25.22,0,0,0,50,87.53l28.4-17a42.91,42.91,0,0,0,5.77,5.24v43.52a25.23,25.23,0,0,0-33.66,23.8v53.37a41.77,41.77,0,0,0,12.32,29.75c4.4,5.68,21.34,15.65,21.34,38.76V278.8a8.41,8.41,0,0,0,8.41,8.42h117.8a8.42,8.42,0,0,0,8.42-8.42V259.91a61.69,61.69,0,0,1,7.06-28,93,93,0,0,0,9.77-41.39V126.22a25.24,25.24,0,0,0-34.55-23.46,25.23,25.23,0,0,0-41.18-12.17,25.25,25.25,0,0,0-25.25-5V75.73a42.26,42.26,0,0,0,14.6-20.2l70.14,8.77a25.25,25.25,0,1,0,2.09-16.7l-70.14-8.77A42.06,42.06,0,1,0,69.73,56.06l-28.42,17a25.24,25.24,0,1,0-16.07,44.7ZM244,50.49a8.42,8.42,0,1,1-8.41,8.41A8.42,8.42,0,0,1,244,50.49ZM143.05,101a8.42,8.42,0,0,1,8.41,8.41v33.66a8.42,8.42,0,0,0,16.83,0V109.39a8.42,8.42,0,0,1,16.83,0v50.49a8.42,8.42,0,0,0,16.83,0V126.22a8.42,8.42,0,1,1,16.83,0V190.5a76.12,76.12,0,0,1-8,33.87A76.58,76.58,0,0,0,202,259.91v10.48H101v-5.46c0-31.26-22.47-45.6-26.27-50.66a25,25,0,0,1-7.39-17.85V143.05a8.42,8.42,0,1,1,16.83,0v33.66a8.42,8.42,0,0,0,16.83,0V58.9a8.41,8.41,0,0,1,8-8.39l2.86.35a8.43,8.43,0,0,1,5.92,8v84.15a8.42,8.42,0,0,0,16.83,0V109.39a8.42,8.42,0,0,1,8.42-8.41ZM109.39,16.83a25.21,25.21,0,0,1,23.79,33.64,25.28,25.28,0,0,0-23.54-16.81h-.25A25.29,25.29,0,0,0,85.6,50.47a25.21,25.21,0,0,1,23.79-33.64ZM25.24,84.15a8.42,8.42,0,1,1-8.41,8.41,8.42,8.42,0,0,1,8.41-8.41Zm0,0"/></svg>