<svg id="Layer_1" data-name="Layer 1" xmlns="http://www.w3.org/2000/svg" viewBox="0 0 242.14 242.14"><defs><style>.cls-1{fill:#fff;}.cls-2{fill:#10b3da;}.cls-3{fill:#d6dcde;}.cls-4{fill:#333a38;}</style></defs><title>website-video-page-icon</title><rect class="cls-1" x="4.5" y="19.43" width="232.72" height="218.91"/><rect class="cls-2" x="44.93" y="174.69" width="86.98" height="39.2"/><rect class="cls-2" x="44.93" y="72.82" width="152.68" height="77.11"/><rect class="cls-2" x="44.93" y="35.28" width="23.67" height="23.67"/><rect class="cls-3" x="5.82" y="4.31" width="78.23" height="15.12"/><path class="cls-4" d="M230,16.14H88.78v-4A12.11,12.11,0,0,0,76.68,0H12.11A12.11,12.11,0,0,0,0,12.11V230a12.11,12.11,0,0,0,12.11,12.11H230A12.11,12.11,0,0,0,242.14,230V28.25A12.11,12.11,0,0,0,230,16.14Zm-222-4a4,4,0,0,1,4-4H76.68a4,4,0,0,1,4,4v4H8.07ZM234.07,230a4,4,0,0,1-4,4H12.11a4,4,0,0,1-4-4V24.21H230a4,4,0,0,1,4,4Zm0,0"/><path class="cls-4" d="M125.11,169.5H52.46a12.1,12.1,0,0,0-12.1,12.1v24.22a12.11,12.11,0,0,0,12.1,12.11h72.65a12.11,12.11,0,0,0,12.1-12.11V181.6a12.1,12.1,0,0,0-12.1-12.1Zm4,36.32a4,4,0,0,1-4,4H52.46a4,4,0,0,1-4-4V181.6a4,4,0,0,1,4-4h72.65a4,4,0,0,1,4,4Zm0,0"/><path class="cls-4" d="M201.78,72.64H40.36v80.72H201.78Zm-8.07,72.64H48.43V80.71H193.71Zm0,0"/><path class="cls-4" d="M52.46,64.57h8.07A12.11,12.11,0,0,0,72.64,52.46V44.39a12.11,12.11,0,0,0-12.11-12.1H52.46a12.1,12.1,0,0,0-12.1,12.1v8.07a12.11,12.11,0,0,0,12.1,12.11Zm-4-20.18a4,4,0,0,1,4-4h8.07a4,4,0,0,1,4,4v8.07a4,4,0,0,1-4,4H52.46a4,4,0,0,1-4-4Zm0,0"/><path class="cls-4" d="M88.78,64.57h48.43a8.07,8.07,0,0,0,8.07-8.07V48.43a8.07,8.07,0,0,0-8.07-8.07H88.78a8.07,8.07,0,0,0-8.07,8.07V56.5a8.07,8.07,0,0,0,8.07,8.07Zm0-16.14h48.43V56.5H88.78Zm0,0"/><path class="cls-4" d="M205.82,189.68h-56.5a4,4,0,1,0,0,8.07h56.5a4,4,0,0,0,0-8.07Zm0,0"/><path class="cls-4" d="M205.82,173.53h-56.5a4,4,0,1,0,0,8.07h56.5a4,4,0,0,0,0-8.07Zm0,0"/><path class="cls-4" d="M205.82,205.82h-56.5a4,4,0,1,0,0,8.07h56.5a4,4,0,0,0,0-8.07Zm0,0"/><path class="cls-4" d="M87.6,182.79a4,4,0,0,0-5.7,5.7l5.21,5.22-5.21,5.22a4,4,0,1,0,5.7,5.71l8.07-8.08a4,4,0,0,0,0-5.7Zm0,0"/><path class="cls-4" d="M60.53,96.86H76.68a4,4,0,0,0,0-8.08H60.53a4,4,0,0,0,0,8.08Zm0,0"/><polygon class="cls-2" points="109.11 125 109.11 102.69 138.76 111.38 109.11 125"/><path class="cls-4" d="M106.67,128.42a4,4,0,0,0,2.29.72,4.24,4.24,0,0,0,1.42-.25l32.29-12.11a4,4,0,0,0,0-7.56L110.38,97.11a4,4,0,0,0-5.45,3.78v24.22a4,4,0,0,0,1.74,3.31ZM113,106.71,129.75,113,113,119.28Zm0,0"/></svg>