<svg id="_30" data-name=" 30" xmlns="http://www.w3.org/2000/svg" viewBox="0 0 496 496"><defs><style>.cls-1{fill:#f15d38;}.cls-2{fill:#32b5d8;}.cls-3{fill:#fae18c;}.cls-4{fill:#fff;}.cls-5{fill:#333a38;}</style></defs><polygon class="cls-1" points="126.2 435.05 171.16 487.82 180.28 483.26 186.14 425.92 120.98 426.58 126.2 435.05"/><rect class="cls-1" x="29.76" y="246.74" width="262.59" height="190.91"/><rect class="cls-2" x="216.11" y="68.86" width="271.06" height="209.16"/><rect class="cls-3" x="13.8" y="9.89" width="233.59" height="205.25"/><polygon class="cls-3" points="91.01 207.32 138.9 262.05 148.68 261.07 153.56 206.34 91.01 207.32"/><polygon class="cls-4" points="70.16 131.41 129.45 184.19 180.28 139.88 197.22 107.95 193.31 66.25 159.43 57.13 136.62 58.43 131.41 70.16 107.3 54.52 83.19 54.52 64.3 75.37 53.87 99.48 70.16 131.41"/><rect class="cls-4" x="280.62" y="149.16" width="44.31" height="100.19"/><polygon class="cls-4" points="320 160 351.64 138.58 360.77 111.86 372.5 105.35 395.3 112.51 391.39 143.14 397.25 152.26 420.06 152.26 438.3 167.25 441.56 196.57 441.56 227.19 427.23 241.53 399.86 251.95 358.16 250 334.7 240.22 320 160"/><polygon class="cls-2" points="321.67 265.63 331.44 326.23 341.87 326.23 388.78 273.45 321.67 265.63"/><path class="cls-4" d="M79.46,362.72H242a17.13,17.13,0,0,1,17.12,17.12v32.4H62.34v-32.4A17.13,17.13,0,0,1,79.46,362.72Z"/><rect class="cls-4" x="76.02" y="316.46" width="39.75" height="65.16"/><rect class="cls-4" x="139.23" y="300.17" width="43.66" height="37.79"/><rect class="cls-4" x="128.15" y="350.99" width="60.6" height="34.53"/><rect class="cls-4" x="205.04" y="316.46" width="35.84" height="40.4"/><path class="cls-5" d="M208,99.19V97.94a51,51,0,0,0-15-36.28,46.62,46.62,0,0,0-65-.95,46.62,46.62,0,0,0-65,.95A51,51,0,0,0,48,97.94v1.25a54.36,54.36,0,0,0,18.23,40.6L128,194.7l61.76-54.9A54.37,54.37,0,0,0,208,99.19ZM128,173.3,76.86,127.84A38.35,38.35,0,0,1,64,99.19V97.94A35.05,35.05,0,0,1,74.34,73a30.64,30.64,0,0,1,43.32,0L128,83.31,138.34,73c11.57-11.56,31.75-11.56,43.32,0A35.07,35.07,0,0,1,192,98v1.25a38.35,38.35,0,0,1-12.86,28.65Z"/><path class="cls-5" d="M472,64H256V24A24,24,0,0,0,232,0H24A24,24,0,0,0,0,24V200a24,24,0,0,0,24,24H92.26l13.33,16H40a24,24,0,0,0-24,24V424a24,24,0,0,0,24,24h84.26l34.33,41.2A18.89,18.89,0,0,0,192,477.1V448h88a24,24,0,0,0,24-24V288h16v29.1a18.89,18.89,0,0,0,33.41,12.1L387.74,288H472a24,24,0,0,0,24-24V88A24,24,0,0,0,472,64ZM24,208a8,8,0,0,1-8-8V24a8,8,0,0,1,8-8H232a8,8,0,0,1,8,8V200a8,8,0,0,1-8,8H144v45.1a3,3,0,0,1-5.12,1.85L99.74,208Zm184,32H160V224h48Zm80,184a8,8,0,0,1-8,8H176v45.1a3,3,0,0,1-5.12,1.85L131.74,432H40a8,8,0,0,1-8-8V264a8,8,0,0,1,8-8h78.92l7.67,9.2A18.84,18.84,0,0,0,159.7,256H208v8a24,24,0,0,0,24,24h56ZM480,264a8,8,0,0,1-8,8H380.26l-39.14,47c-1.58,1.89-5.12.62-5.12-1.85V272H232a8,8,0,0,1-8-8V224h8a24,24,0,0,0,24-24V80H472a8,8,0,0,1,8,8Z"/><path class="cls-5" d="M192,336a31.65,31.65,0,0,0,3,13.26,52.81,52.81,0,0,0-11.44-7.74,32,32,0,1,0-47.08,0A52.71,52.71,0,0,0,125,349.26a31.33,31.33,0,0,0,2.63-17.75A32,32,0,1,0,72.86,358,48,48,0,0,0,48,400v8a8,8,0,0,0,8,8h0a8,8,0,0,0,8-8v-7.34c0-16.32,12-30.49,28.17-32.43a31.74,31.74,0,0,1,18.1,3.17,53.64,53.64,0,0,0-2.64,11.47l-2.7,24.29A8,8,0,0,0,112,416h0a8,8,0,0,0,8.83-7.07l2.7-24.29a36.69,36.69,0,0,1,72.94,0l2.7,24.29A8,8,0,0,0,208,416h0a8,8,0,0,0,7.07-8.83h0l-2.7-24.29a53,53,0,0,0-2.64-11.47,31.74,31.74,0,0,1,18.1-3.17C244,370.17,256,384.34,256,400.66V408a8,8,0,0,0,8,8h0a8,8,0,0,0,8-8v-8a48,48,0,0,0-24.86-42A32,32,0,1,0,192,336ZM80,336a16,16,0,1,1,16,16A16,16,0,0,1,80,336Zm64-16a16,16,0,1,1,16,16A16,16,0,0,1,144,320Zm96,16a16,16,0,1,1-16-16A16,16,0,0,1,240,336Z"/><path class="cls-5" d="M416,144H401.44l1.93-11.55a31.3,31.3,0,0,0-25.72-36A30.68,30.68,0,0,0,372.5,96a24,24,0,0,0-23.29,18.18,66,66,0,0,1-17.35,30.65l-2.36,2.36A15.88,15.88,0,0,0,320,144H288a16,16,0,0,0-16,16v80a16,16,0,0,0,16,16h32a16,16,0,0,0,15.05-10.77A102.79,102.79,0,0,0,380.84,256H416a32,32,0,0,0,32-32V176A32,32,0,0,0,416,144ZM288,240V160h32v80Zm144-16a16,16,0,0,1-16,16H380.84A87,87,0,0,1,336,227.54V163.31l7.17-7.17a82,82,0,0,0,21.57-38.08A8,8,0,0,1,372.5,112a15.3,15.3,0,0,1,15.29,15.31,15.09,15.09,0,0,1-.21,2.51l-5,30.18H416a16,16,0,0,1,16,16Z"/></svg>