<svg id="Layer_1" data-name="Layer 1" xmlns="http://www.w3.org/2000/svg" viewBox="0 0 349.75 295.73"><defs><style>.cls-1{fill:#d6dcde;}.cls-2{fill:#343a38;}.cls-3{fill:#fff;}.cls-4{fill:#00b2da;}</style></defs><title>responsive-devices-icon</title><path class="cls-1" d="M335.53,230.32c0,6.26-5.11,8.54-11.37,8.54H17.06c-6.25,0-11.37-2.28-11.37-8.54V17.06A11.41,11.41,0,0,1,17.06,5.69h307.1a11.4,11.4,0,0,1,11.37,11.37Z"/><path class="cls-1" d="M157.25,238.86c0,28.43-5.69,51.18-22.18,51.18h75.35c-16.49,0-22.18-22.75-22.18-51.18Z"/><path class="cls-2" d="M324.16,244.54H17.06C4.48,244.54,0,237.2,0,230.33V17.06A17.08,17.08,0,0,1,17.06,0h307.1a17.08,17.08,0,0,1,17.06,17.06V91a5.69,5.69,0,1,1-11.37,0V17.06a5.69,5.69,0,0,0-5.69-5.68H17.06a5.7,5.7,0,0,0-5.69,5.68V230.33c0,.92,0,2.84,5.69,2.84h307.1c5.69,0,5.69-1.92,5.69-2.84V116.58a5.69,5.69,0,0,1,11.37,0V230.33C341.22,237.2,336.74,244.54,324.16,244.54Z"/><path class="cls-2" d="M156.39,295.73H130.8a5.69,5.69,0,0,1,0-11.38h25.59a5.69,5.69,0,1,1,0,11.38Z"/><path class="cls-2" d="M216.11,295.73H176.3a5.69,5.69,0,0,1,0-11.38h39.81a5.69,5.69,0,0,1,0,11.38Z"/><path class="cls-2" d="M210.7,295.73c-7.1,0-16.78-3.09-22.56-17.79-3.52-8.94-5.3-21.51-5.3-37.38a5.69,5.69,0,1,1,11.37,0c0,38.1,10.33,43.79,16.49,43.79a5.69,5.69,0,0,1,0,11.38Z"/><path class="cls-2" d="M135.07,295.73a5.69,5.69,0,0,1,0-11.38c6.16,0,16.49-5.69,16.49-43.79a5.69,5.69,0,1,1,11.37,0c0,15.87-1.78,28.44-5.3,37.38C151.85,292.64,142.17,295.73,135.07,295.73Z"/><rect class="cls-3" x="31.28" y="28.44" width="278.66" height="164.92"/><path class="cls-2" d="M309.94,196.2H28.44V25.59H312.79V173.46a2.85,2.85,0,0,1-5.69,0V31.28h-273V190.52H309.94a2.84,2.84,0,1,1,0,5.68Z"/><circle class="cls-2" cx="172.89" cy="215.54" r="9.38"/><path class="cls-2" d="M281.51,116.58H179.14a2.84,2.84,0,1,1,0-5.68H281.51a2.84,2.84,0,1,1,0,5.68Z"/><path class="cls-2" d="M281.51,159.24H59.71a2.85,2.85,0,0,1,0-5.69h221.8a2.85,2.85,0,0,1,0,5.69Z"/><path class="cls-2" d="M281.51,173.46H59.71a2.85,2.85,0,0,1,0-5.69h221.8a2.85,2.85,0,0,1,0,5.69Z"/><path class="cls-2" d="M284.35,85.31H56.87V45.5H284.35ZM62.56,79.62h216.1V51.18H62.56Z"/><rect class="cls-4" x="59.71" y="96.68" width="102.37" height="48.34"/><path class="cls-2" d="M281.51,102.37H179.14a2.85,2.85,0,0,1,0-5.69H281.51a2.85,2.85,0,0,1,0,5.69Z"/><path class="cls-2" d="M281.51,130.8H179.14a2.84,2.84,0,1,1,0-5.68H281.51a2.84,2.84,0,1,1,0,5.68Z"/><path class="cls-2" d="M281.51,145H179.14a2.85,2.85,0,0,1,0-5.69H281.51a2.85,2.85,0,0,1,0,5.69Z"/><path class="cls-1" d="M344.06,275.82a11.4,11.4,0,0,1-11.37,11.37h-91a11.4,11.4,0,0,1-11.38-11.37V125.12a11.41,11.41,0,0,1,11.38-11.38h91a11.4,11.4,0,0,1,11.37,11.38Z"/><polyline class="cls-3" points="327 255.92 247.38 255.92 247.38 219.24 247.38 145.02 327 145.02 327 236.01"/><path class="cls-2" d="M327,258.76H244.54V142.18h85.31V236a2.85,2.85,0,1,1-5.69,0V147.86H250.23V253.07H327a2.85,2.85,0,1,1,0,5.69Z"/><path class="cls-2" d="M332.69,292.88h-91a17.08,17.08,0,0,1-17.06-17.06V125.12a17.08,17.08,0,0,1,17.06-17.07h91a17.08,17.08,0,0,1,17.06,17.07v150.7A17.08,17.08,0,0,1,332.69,292.88Zm-91-173.45a5.69,5.69,0,0,0-5.69,5.69v150.7a5.69,5.69,0,0,0,5.69,5.69h91a5.69,5.69,0,0,0,5.69-5.69V125.12a5.69,5.69,0,0,0-5.69-5.69Z"/><circle class="cls-2" cx="287.48" cy="270.42" r="7.11"/><path class="cls-2" d="M309.94,133.65H261.6a2.85,2.85,0,0,1,0-5.69h48.34a2.85,2.85,0,1,1,0,5.69Z"/><rect class="cls-4" x="258.76" y="181.99" width="56.87" height="22.75"/><path class="cls-2" d="M315.63,176.3H258.76V159.24h56.87Zm-51.18-5.69h45.49v-5.69H264.45Z"/><path class="cls-2" d="M312.79,216.11H261.6a2.85,2.85,0,0,1,0-5.69h51.19a2.85,2.85,0,0,1,0,5.69Z"/><path class="cls-2" d="M312.79,227.48H261.6a2.85,2.85,0,0,1,0-5.69h51.19a2.85,2.85,0,0,1,0,5.69Z"/><path class="cls-2" d="M312.79,238.86H261.6a2.85,2.85,0,0,1,0-5.69h51.19a2.85,2.85,0,0,1,0,5.69Z"/></svg>