<svg id="Layer_1" data-name="Layer 1" xmlns="http://www.w3.org/2000/svg" viewBox="0 0 329.15 336.37"><defs><style>.cls-1{fill:#fbe286;}.cls-2{fill:#333a38;}.cls-3{fill:#d7e2e9;}.cls-4{fill:#26b5da;}.cls-5{fill:#fff;}.cls-6{fill:#f35c2e;}.cls-7{fill:#c8d3d8;}</style></defs><title>ut-marketing-icon</title><polygon class="cls-1" points="9.62 5.95 96.18 67.9 182.89 6.1 9.62 5.95"/><polygon class="cls-1" points="184.22 6.1 96.84 67.9 8.75 5.95 6.01 6.7 6.01 129.24 186.35 129.24 186.35 6.7 184.22 6.1"/><path class="cls-2" d="M186.35,135.25H6a6,6,0,0,1-6-6V6A6,6,0,0,1,6,0H186.35a6,6,0,0,1,6,6V54.1a6,6,0,0,1-12,0V12H12V123.23H180.34V84.16a6,6,0,0,1,12,0v45.08A6,6,0,0,1,186.35,135.25Z"/><path class="cls-2" d="M32.94,110.94a3,3,0,0,1-1.67-5.5L182.06,4.21a3,3,0,0,1,3.35,5L34.62,110.43A3.06,3.06,0,0,1,32.94,110.94Z"/><path class="cls-2" d="M96.18,67.09a3,3,0,0,1-1.65-.5L7,9.22a3,3,0,0,1,3.29-5L97.83,61.57a3,3,0,0,1-1.65,5.52Z"/><path class="cls-3" d="M92.51,235.85S122.78,310,140.21,321c13.14,14.7,19.09,8.42,23,6.19s31.8-31.07,4.29-29.81c-8.08-17.16-52.5-79.08-52.5-79.08Z"/><path class="cls-4" d="M92.51,235.85S122.78,310,140.21,321c13.14,14.7,19.09,8.42,23,6.19s31.8-31.07,4.29-29.81c-8.08-17.16-52.5-79.08-52.5-79.08Z"/><path class="cls-2" d="M155.05,336.37c-5.14,0-11.32-2.64-18.8-10.81-18.54-13-46.17-79.77-49.3-87.44a6,6,0,0,1,1.86-7l22.45-17.58a6,6,0,0,1,4.56-1.22,6,6,0,0,1,4,2.45c1.72,2.39,40,55.83,51.31,76.59,9.36.57,12.71,5,13.83,8.84,3.7,12.69-15.91,30.51-18.82,32.18-.3.17-.6.37-.93.58A18.75,18.75,0,0,1,155.05,336.37Zm-55.24-98.6c11.83,28.26,32.65,71.24,43.6,78.11A6.12,6.12,0,0,1,144.7,317c8.45,9.46,11.17,7.71,14.05,5.87.47-.31.92-.59,1.34-.84a55.85,55.85,0,0,0,8.27-8.77c3.94-5.11,5-8.21,5.08-9.35-.61-.25-2.21-.69-5.69-.53a6,6,0,0,1-5.71-3.44c-6.43-13.65-37.59-57.92-48.32-73ZM160.19,322l0,0Z"/><path class="cls-5" d="M148.12,205.71,53.41,225c-3.07.63-5.41-1.47-6-4.54L30.54,137.51c-.63-3.07.72-5.83,3.78-6.46l94.53-19.21c55.61-11.3,118-91.16,118-91.16L292.06,243.1s-89.81-48.18-143.91-37.21l-14.49-71.33"/><path class="cls-6" d="M53.44,225.12l95.46-19.41-19.24-94.5L34.2,130.63a5.94,5.94,0,0,0-4.35,7l16.86,82.92A5.79,5.79,0,0,0,53.44,225.12Z"/><circle class="cls-2" cx="280.1" cy="129.69" r="22.69"/><path class="cls-2" d="M292.06,249.11a6,6,0,0,1-2.84-.72c-.88-.47-88.53-47-139.88-36.61a6.19,6.19,0,0,1-1.48.11l-93.25,19a10.7,10.7,0,0,1-8.14-1.53,11.88,11.88,0,0,1-5-7.74L24.65,138.71c-1.33-6.45,2.31-12.28,8.46-13.55L127.65,106c52.78-10.73,113.86-88.19,114.47-89a6,6,0,0,1,10.62,2.5L298,241.9a6,6,0,0,1-5.89,7.21ZM165.73,198.25c42.68,0,95.26,22.94,118,33.9L243.47,34.21c-19,22.13-67.7,74.23-113.42,83.52l-93.54,19,16.71,82.15L141,201l-13.25-65.25a6,6,0,1,1,11.78-2.39L152.89,199A103.24,103.24,0,0,1,165.73,198.25Z"/><path class="cls-2" d="M62.63,196.45A3,3,0,0,1,59.69,194L46.38,128.58a3,3,0,1,1,5.89-1.2l13.31,65.46a3,3,0,0,1-2.34,3.55A3.23,3.23,0,0,1,62.63,196.45Z"/><path class="cls-7" d="M128.73,197.8l3.58,17.67s-39.26,31.14-43.16,33.4-11.81,2.4-11.81,2.4L69,210Z"/><path class="cls-2" d="M77.33,257.28a6,6,0,0,1-5.89-4.81l-8.38-41.3a6,6,0,0,1,4.69-7.09l59.78-12.17a6,6,0,0,1,7.09,4.7l3.58,17.67a6,6,0,0,1-2.16,5.9c-9.29,7.37-39.91,31.6-43.89,33.89-5,2.85-13.1,3.18-14.68,3.21ZM76,214.67l6.11,30.1a13.45,13.45,0,0,0,4-1.12c2.43-1.46,21.64-16.44,39.53-30.6L124,204.89Z"/><path class="cls-3" d="M46.17,217.91h0a22.68,22.68,0,0,1-26.75-17.73l-6.23-30.57a22.68,22.68,0,0,1,17.74-26.75h0Z"/><path class="cls-4" d="M46.17,217.91h0a22.68,22.68,0,0,1-26.75-17.73l-6.23-30.57a22.68,22.68,0,0,1,17.74-26.75h0Z"/><path class="cls-2" d="M41.65,224.38a28.76,28.76,0,0,1-28.13-23L7.3,170.81A28.75,28.75,0,0,1,29.73,137a6,6,0,0,1,7.09,4.69l15.24,75.05a6,6,0,0,1-4.7,7.09A28.59,28.59,0,0,1,41.65,224.38ZM26.46,151a16.69,16.69,0,0,0-7.37,17.37L25.31,199a16.71,16.71,0,0,0,13.55,13.13Z"/><path class="cls-6" d="M276.64,255l11.12-2.26a11.38,11.38,0,0,0,8.87-13.37L252.53,22.54a11.36,11.36,0,0,0-13.37-8.86L228,15.93"/><path class="cls-2" d="M285.32,257.72a17.45,17.45,0,0,1-17-13.89L224.19,27A17.42,17.42,0,0,1,237.74,6.5l.44-.1.13,0a17.42,17.42,0,0,1,20.44,13.55h0l44.1,216.86a17.43,17.43,0,0,1-13.55,20.46l-.45.1-.12,0A17.22,17.22,0,0,1,285.32,257.72ZM240.72,18.15l-.46.1A5.39,5.39,0,0,0,236,24.57l44.09,216.85a5.37,5.37,0,0,0,6.25,4.18l.47-.11a5.39,5.39,0,0,0,4.27-6.32L247,22.33A5.37,5.37,0,0,0,240.72,18.15Z"/><path class="cls-2" d="M121,258.06a3,3,0,0,1-1.65-.5,3,3,0,0,1-.85-4.16l9.23-13.92a3,3,0,0,1,5,3.32l-9.23,13.92A3,3,0,0,1,121,258.06Z"/><path class="cls-2" d="M128.67,269.16a3.07,3.07,0,0,1-1.66-.5,3,3,0,0,1-.84-4.17l9.67-14.61a3,3,0,0,1,5,3.32l-9.68,14.61A3,3,0,0,1,128.67,269.16Z"/><path class="cls-2" d="M135,282.14a3,3,0,0,1-2.5-4.67L143.42,261a3,3,0,0,1,5,3.32l-10.94,16.5A3,3,0,0,1,135,282.14Z"/><path class="cls-2" d="M309.07,125.61a3,3,0,0,1-.6-6l17.08-3.45a3,3,0,0,1,1.19,5.89l-17.07,3.46A3.13,3.13,0,0,1,309.07,125.61Z"/><path class="cls-2" d="M297.47,106.4a3,3,0,0,1-2.48-4.7l9.62-14a3,3,0,1,1,5,3.4l-9.62,14A3,3,0,0,1,297.47,106.4Z"/><path class="cls-2" d="M320.76,159.57a3,3,0,0,1-1.62-.47l-14.33-9.17a3,3,0,1,1,3.23-5.07L322.38,154a3,3,0,0,1-1.62,5.54Z"/></svg>